<?xml version="1.0" encoding="UTF-8"?>
<svg id="artwork" xmlns="http://www.w3.org/2000/svg" version="1.1" viewBox="0 0 238.96 70.87">
  <!-- Generator: Adobe Illustrator 29.8.3, SVG Export Plug-In . SVG Version: 2.1.1 Build 3)  -->
  <defs>
    <style>
      .st0 {
        fill: #4285f4;
      }

      .st1 {
        isolation: isolate;
      }

      .st2 {
        fill: #a6a6a6;
      }

      .st3 {
        fill: #34a853;
      }

      .st4 {
        fill: #fbbc04;
      }

      .st5 {
        fill: #fff;
      }

      .st6 {
        fill: #ea4335;
      }
    </style>
  </defs>
  <g>
    <rect x=".11" y=".03" width="238.85" height="70.77" rx="8.85" ry="8.85"/>
    <path class="st2" d="M230.11,1.45c4.1,0,7.43,3.33,7.43,7.43v53.08c0,4.1-3.33,7.43-7.43,7.43H8.95c-4.1,0-7.43-3.33-7.43-7.43V8.88C1.52,4.77,4.85,1.45,8.95,1.45h221.16M230.11.03H8.95C4.09.03.11,4.01.11,8.88v53.08c0,4.87,3.98,8.85,8.85,8.85h221.16c4.87,0,8.85-3.98,8.85-8.85V8.88c0-4.87-3.98-8.85-8.85-8.85h0Z"/>
    <path class="st5" d="M120.67,38.51c-4.16,0-7.55,3.17-7.55,7.52s3.4,7.52,7.55,7.52,7.55-3.18,7.55-7.52-3.4-7.52-7.55-7.52ZM120.67,50.6c-2.28,0-4.25-1.88-4.25-4.56s1.96-4.56,4.25-4.56,4.25,1.86,4.25,4.56-1.96,4.56-4.25,4.56ZM104.18,38.51c-4.16,0-7.55,3.17-7.55,7.52s3.4,7.52,7.55,7.52,7.55-3.18,7.55-7.52-3.4-7.52-7.55-7.52ZM104.18,50.6c-2.28,0-4.25-1.88-4.25-4.56s1.96-4.56,4.25-4.56,4.25,1.86,4.25,4.56-1.96,4.56-4.25,4.56ZM84.57,40.83v3.18h7.64c-.23,1.8-.83,3.11-1.73,4.02-1.11,1.11-2.85,2.34-5.89,2.34-4.71,0-8.39-3.79-8.39-8.49s3.68-8.49,8.39-8.49c2.53,0,4.39.99,5.75,2.28l2.25-2.25c-1.91-1.82-4.44-3.22-8.01-3.22-6.44,0-11.85,5.24-11.85,11.7s5.41,11.7,11.85,11.7c3.49,0,6.1-1.13,8.16-3.27,2.11-2.11,2.76-5.08,2.76-7.47,0-.74-.05-1.43-.18-2h-10.74v-.02ZM164.74,43.31c-.62-1.68-2.53-4.79-6.44-4.79s-7.09,3.04-7.09,7.52c0,4.21,3.18,7.52,7.47,7.52,3.45,0,5.45-2.11,6.26-3.33l-2.57-1.72c-.85,1.26-2.02,2.09-3.7,2.09s-2.88-.78-3.64-2.28l10.07-4.16-.34-.85s-.02,0-.02,0ZM154.48,45.82c-.09-2.9,2.25-4.39,3.93-4.39,1.31,0,2.42.65,2.8,1.59l-6.72,2.8ZM146.3,53.11h3.31v-22.12h-3.31v22.12ZM140.89,40.19h-.11c-.74-.88-2.16-1.68-3.96-1.68-3.77,0-7.22,3.31-7.22,7.55s3.45,7.5,7.22,7.5c1.8,0,3.22-.8,3.96-1.72h.11v1.08c0,2.88-1.54,4.42-4.02,4.42-2.02,0-3.27-1.45-3.79-2.67l-2.88,1.2c.83,2,3.03,4.44,6.67,4.44,3.87,0,7.15-2.28,7.15-7.84v-13.52h-3.13s0,1.22,0,1.22ZM137.08,50.6c-2.28,0-4.19-1.91-4.19-4.53s1.91-4.58,4.19-4.58,4.02,1.95,4.02,4.58-1.77,4.53-4.02,4.53ZM180.24,30.99h-7.91v22.12h3.31v-8.39h4.62c3.66,0,7.25-2.65,7.25-6.86s-3.59-6.86-7.25-6.86h-.02ZM180.31,41.65h-4.69v-7.59h4.69c2.48,0,3.87,2.05,3.87,3.79s-1.4,3.79-3.87,3.79h0v.02ZM200.73,38.48c-2.39,0-4.87,1.06-5.89,3.38l2.94,1.22c.62-1.22,1.79-1.63,3.01-1.63,1.7,0,3.45,1.03,3.47,2.85v.23c-.6-.34-1.88-.85-3.45-.85-3.17,0-6.37,1.73-6.37,4.97,0,2.95,2.58,4.87,5.48,4.87,2.21,0,3.45-.99,4.21-2.16h.11v1.72h3.18v-8.47c0-3.93-2.94-6.12-6.72-6.12h.04ZM200.32,50.6c-1.08,0-2.58-.55-2.58-1.88,0-1.7,1.88-2.35,3.5-2.35,1.45,0,2.14.32,3.01.74-.25,2.05-2.02,3.5-3.93,3.5h0v-.02ZM219.04,38.96l-3.79,9.59h-.11l-3.93-9.59h-3.56l5.89,13.41-3.36,7.45h3.45l9.08-20.86s-3.68,0-3.68,0ZM189.31,53.11h3.31v-22.12h-3.31v22.12Z"/>
    <g>
      <path class="st6" d="M36.77,34.39l-18.84,19.99h0c.58,2.18,2.57,3.77,4.92,3.77.94,0,1.82-.25,2.58-.71l.05-.04,21.2-12.23-9.93-10.81h.02v.02Z"/>
      <path class="st4" d="M55.82,30.99h-.02l-9.15-5.33-10.31,9.18,10.35,10.35,9.11-5.25c1.59-.87,2.67-2.55,2.67-4.48s-1.06-3.61-2.65-4.46h0v-.02Z"/>
      <path class="st0" d="M17.92,16.45c-.11.42-.18.85-.18,1.31v35.33c0,.46.05.88.18,1.31l19.48-19.48s-19.48-18.47-19.48-18.47Z"/>
      <path class="st3" d="M36.91,35.42l9.75-9.75-21.18-12.28c-.76-.46-1.66-.73-2.64-.73-2.35,0-4.33,1.61-4.92,3.77h0l18.98,18.97h0v.02Z"/>
    </g>
  </g>
  <g class="st1">
    <path class="st5" d="M73.98,12.24h3.88c.66,0,1.26.15,1.8.43.54.29.97.69,1.29,1.2.31.51.47,1.09.47,1.74,0,.74-.24,1.4-.72,1.97-.48.57-1.07.96-1.79,1.15l-.02.08,3.02,4.36v.09h-2l-2.91-4.31h-1.29v4.31h-1.72v-11.02ZM77.81,17.35c.51,0,.95-.16,1.31-.49s.54-.75.54-1.26c0-.29-.07-.56-.22-.83-.14-.27-.35-.48-.62-.65-.27-.17-.58-.25-.95-.25h-2.17v3.49h2.11Z"/>
    <path class="st5" d="M85.8,22.75c-.87-.51-1.56-1.2-2.05-2.09-.5-.88-.75-1.85-.75-2.91s.25-2.03.75-2.9c.5-.88,1.18-1.57,2.05-2.09.87-.51,1.84-.77,2.91-.77s2.03.26,2.9.77c.87.51,1.55,1.21,2.05,2.09.5.88.75,1.85.75,2.9s-.25,2.03-.75,2.91c-.5.88-1.18,1.58-2.06,2.09-.87.51-1.84.76-2.91.76s-2.04-.25-2.91-.76ZM90.71,21.34c.61-.35,1.08-.83,1.43-1.45.35-.62.52-1.33.52-2.13s-.17-1.51-.52-2.13-.83-1.11-1.43-1.45-1.27-.52-2-.52-1.4.17-2,.52c-.61.35-1.09.83-1.44,1.45s-.53,1.33-.53,2.13.18,1.51.53,2.13c.35.62.83,1.11,1.44,1.45.6.35,1.27.52,2,.52s1.4-.17,2-.52Z"/>
    <path class="st5" d="M95.88,21.49l5.74-7.6h-5.5v-1.65h7.5v1.77l-5.71,7.6h5.77v1.65h-7.8v-1.77Z"/>
    <path class="st5" d="M106.3,22.82c-.63-.46-1.07-1.1-1.32-1.92l1.6-.66c.32,1.08.96,1.62,1.92,1.62.53,0,.96-.18,1.28-.55s.48-.84.48-1.44v-7.64h1.71v7.57c0,.78-.15,1.45-.45,2-.3.55-.71.97-1.23,1.26s-1.12.43-1.79.43c-.84,0-1.57-.23-2.2-.69Z"/>
    <path class="st5" d="M114.46,12.24h6.7v1.65h-4.97v3.05h4.48v1.63h-4.48v3.05h4.97v1.65h-6.7v-11.02Z"/>
    <path class="st5" d="M123.45,12.24h3.52c1.14,0,2.13.23,2.99.69s1.51,1.11,1.96,1.95.69,1.79.69,2.87-.23,2.03-.69,2.87-1.11,1.49-1.96,1.95-1.85.69-2.99.69h-3.52v-11.02ZM124.91,9.42v-.11h1.63l.69.91h.15l.69-.91h1.63v.11l-1.66,1.86h-1.48l-1.66-1.86ZM126.95,21.62c1.23,0,2.19-.34,2.89-1.02.69-.68,1.04-1.63,1.04-2.84s-.35-2.15-1.04-2.83c-.69-.69-1.65-1.03-2.89-1.03h-1.77v7.73h1.77Z"/>
    <path class="st5" d="M136.51,13.89h-3.08v-1.65h7.88v1.65h-3.08v9.37h-1.72v-9.37Z"/>
    <path class="st5" d="M143.12,12.24h6.7v1.65h-4.97v3.05h4.48v1.63h-4.48v3.05h4.97v1.65h-6.7v-11.02Z"/>
    <path class="st5" d="M157.49,13.89h-3.08v-1.65h7.88v1.65h-3.08v9.37h-1.72v-9.37Z"/>
    <path class="st5" d="M165.89,22.75c-.87-.51-1.56-1.2-2.05-2.09-.5-.88-.75-1.85-.75-2.91s.25-2.03.75-2.9c.5-.88,1.18-1.57,2.05-2.09s1.84-.77,2.91-.77,2.03.26,2.9.77,1.55,1.21,2.05,2.09c.5.88.76,1.85.76,2.9s-.25,2.03-.75,2.91c-.5.88-1.18,1.58-2.06,2.09-.87.51-1.84.76-2.91.76s-2.04-.25-2.91-.76ZM170.8,21.34c.6-.35,1.08-.83,1.43-1.45.35-.62.52-1.33.52-2.13s-.17-1.51-.52-2.13-.83-1.11-1.43-1.45c-.61-.35-1.27-.52-2-.52s-1.4.17-2,.52c-.61.35-1.09.83-1.44,1.45s-.53,1.33-.53,2.13.18,1.51.53,2.13c.35.62.83,1.11,1.44,1.45.6.35,1.27.52,2,.52s1.39-.17,2-.52Z"/>
  </g>
</svg>