<?xml version="1.0" encoding="UTF-8"?>
<svg id="artwork" xmlns="http://www.w3.org/2000/svg" version="1.1" viewBox="0 0 238.96 70.87">
  <!-- Generator: Adobe Illustrator 29.8.3, SVG Export Plug-In . SVG Version: 2.1.1 Build 3)  -->
  <defs>
    <style>
      .st0 {
        fill: #4285f4;
      }

      .st1 {
        isolation: isolate;
      }

      .st2 {
        fill: #a6a6a6;
      }

      .st3 {
        fill: #34a853;
      }

      .st4 {
        fill: #fbbc04;
      }

      .st5 {
        fill: #fff;
      }

      .st6 {
        fill: #ea4335;
      }
    </style>
  </defs>
  <g>
    <rect x="-.11" y="0" width="239.17" height="70.87" rx="8.86" ry="8.86"/>
    <path class="st2" d="M230.21,1.42c4.11,0,7.44,3.33,7.44,7.44v53.15c0,4.11-3.33,7.44-7.44,7.44H8.75c-4.11,0-7.44-3.33-7.44-7.44V8.86C1.31,4.75,4.64,1.42,8.75,1.42h221.46M230.21,0H8.75C3.88,0-.11,3.99-.11,8.86v53.15c0,4.87,3.99,8.86,8.86,8.86h221.46c4.87,0,8.86-3.99,8.86-8.86V8.86C239.07,3.99,235.08,0,230.21,0h0Z"/>
    <path class="st5" d="M120.61,38.53c-4.16,0-7.56,3.17-7.56,7.53s3.4,7.53,7.56,7.53,7.56-3.19,7.56-7.53-3.4-7.53-7.56-7.53ZM120.61,50.63c-2.29,0-4.25-1.88-4.25-4.57s1.97-4.57,4.25-4.57,4.25,1.86,4.25,4.57-1.97,4.57-4.25,4.57ZM104.1,38.53c-4.16,0-7.56,3.17-7.56,7.53s3.4,7.53,7.56,7.53,7.56-3.19,7.56-7.53-3.4-7.53-7.56-7.53ZM104.1,50.63c-2.29,0-4.25-1.88-4.25-4.57s1.97-4.57,4.25-4.57,4.25,1.86,4.25,4.57-1.97,4.57-4.25,4.57ZM84.47,40.85v3.19h7.65c-.23,1.79-.83,3.12-1.74,4.02-1.12,1.12-2.85,2.34-5.9,2.34-4.71,0-8.4-3.79-8.4-8.5s3.69-8.5,8.4-8.5c2.53,0,4.39.99,5.76,2.29l2.25-2.25c-1.91-1.82-4.45-3.22-8.03-3.22-6.45,0-11.87,5.24-11.87,11.69s5.42,11.69,11.87,11.69c3.49,0,6.11-1.13,8.17-3.28,2.11-2.11,2.76-5.08,2.76-7.48,0-.74-.05-1.44-.18-2h-10.75v.02ZM164.75,43.33c-.62-1.68-2.53-4.8-6.45-4.8s-7.1,3.05-7.1,7.53c0,4.22,3.19,7.53,7.48,7.53,3.45,0,5.46-2.11,6.27-3.35l-2.57-1.72c-.85,1.26-2.02,2.09-3.7,2.09s-2.89-.76-3.65-2.29l10.08-4.16-.34-.85h0l-.02.02ZM154.47,45.85c-.09-2.91,2.25-4.39,3.93-4.39,1.31,0,2.43.66,2.8,1.59l-6.73,2.8ZM146.29,53.15h3.31v-22.15h-3.31v22.15ZM140.86,40.22h-.11c-.74-.89-2.16-1.68-3.97-1.68-3.77,0-7.23,3.31-7.23,7.56s3.45,7.51,7.23,7.51c1.79,0,3.22-.8,3.97-1.72h.11v1.08c0,2.89-1.54,4.43-4.02,4.43-2.02,0-3.28-1.45-3.79-2.68l-2.89,1.2c.83,2,3.03,4.45,6.68,4.45,3.88,0,7.16-2.29,7.16-7.85v-13.54h-3.14s0,1.22,0,1.22ZM137.07,50.63c-2.29,0-4.2-1.91-4.2-4.54s1.91-4.59,4.2-4.59,4.02,1.95,4.02,4.59-1.77,4.54-4.02,4.54ZM180.27,31h-7.92v22.15h3.31v-8.4h4.62c3.67,0,7.26-2.66,7.26-6.87s-3.6-6.87-7.26-6.87h-.02ZM180.34,41.67h-4.69v-7.58h4.69c2.46,0,3.88,2.06,3.88,3.79s-1.4,3.79-3.88,3.79h0ZM200.78,38.5c-2.39,0-4.87,1.05-5.9,3.38l2.94,1.22c.62-1.22,1.79-1.63,3.03-1.63,1.7,0,3.45,1.03,3.47,2.85v.23c-.6-.34-1.88-.85-3.45-.85-3.17,0-6.38,1.74-6.38,5,0,2.96,2.59,4.87,5.49,4.87,2.21,0,3.45-.99,4.22-2.16h.11v1.72h3.19v-8.49c0-3.93-2.94-6.13-6.73-6.13h0l.02-.02ZM200.37,50.63c-1.08,0-2.59-.55-2.59-1.88,0-1.72,1.88-2.37,3.51-2.37,1.45,0,2.14.32,3.03.74-.25,2.06-2.02,3.51-3.93,3.51h-.02ZM219.12,38.98l-3.79,9.6h-.11l-3.93-9.6h-3.56l5.9,13.41-3.37,7.46h3.45l9.09-20.89h-3.69v.02ZM189.35,53.15h3.31v-22.15h-3.31v22.15Z"/>
    <g>
      <path class="st6" d="M36.6,34.41l-18.87,20.02h0c.58,2.18,2.57,3.77,4.93,3.77.94,0,1.82-.25,2.59-.71l.05-.04,21.22-12.26-9.94-10.82.02.04Z"/>
      <path class="st4" d="M55.68,31h-.02l-9.16-5.33-10.33,9.19,10.36,10.36,9.12-5.26c1.59-.87,2.68-2.55,2.68-4.48s-1.06-3.61-2.66-4.46h0v-.02Z"/>
      <path class="st0" d="M17.73,16.44c-.11.43-.18.85-.18,1.31v35.38c0,.46.05.89.18,1.31l19.51-19.51s-19.51-18.5-19.51-18.5Z"/>
      <path class="st3" d="M36.74,35.43l9.76-9.76-21.21-12.3c-.78-.46-1.67-.73-2.64-.73-2.36,0-4.34,1.59-4.93,3.77h0l19.01,19.01h0Z"/>
    </g>
  </g>
  <g class="st1">
    <path class="st5" d="M73.93,12.22h3.53c1.13,0,2.14.23,2.99.69s1.51,1.12,1.97,1.95c.46.83.69,1.79.69,2.87s-.23,2.04-.69,2.87-1.12,1.49-1.97,1.95-1.84.69-2.99.69h-3.53v-11.04.02ZM77.44,21.61c1.24,0,2.2-.34,2.89-1.03s1.05-1.63,1.05-2.83-.35-2.14-1.05-2.83-1.67-1.03-2.89-1.03h-1.77v7.74h1.77v-.02Z"/>
    <path class="st5" d="M85.07,12.22h1.72v11.04h-1.72v-11.04Z"/>
    <path class="st5" d="M90.04,22.71c-.73-.53-1.24-1.28-1.51-2.25l1.63-.66c.16.6.46,1.1.87,1.49s.92.58,1.51.58c.55,0,1.01-.14,1.38-.43s.57-.67.57-1.17c0-.46-.16-.83-.5-1.12s-.92-.58-1.75-.89l-.69-.25c-.74-.25-1.36-.62-1.86-1.12-.5-.48-.76-1.12-.76-1.91,0-.55.14-1.05.44-1.51s.71-.83,1.24-1.1,1.13-.41,1.79-.41c.97,0,1.74.23,2.32.71s.96.99,1.15,1.58l-1.56.66c-.11-.35-.34-.66-.66-.92s-.73-.41-1.24-.41-.92.12-1.28.39c-.35.27-.51.58-.51.99,0,.37.16.69.46.94.3.25.8.48,1.45.71l.69.23c.94.34,1.68.76,2.2,1.29s.78,1.24.78,2.13c0,.73-.18,1.33-.55,1.81-.37.5-.83.85-1.42,1.08-.57.23-1.15.35-1.77.35-.92,0-1.74-.27-2.46-.8l.04-.02Z"/>
    <path class="st5" d="M98.22,12.22h3.83c.66,0,1.24.14,1.79.43.55.28.99.69,1.31,1.2s.48,1.1.48,1.74-.16,1.22-.48,1.74-.76.92-1.31,1.2-1.15.43-1.79.43h-2.09v4.29h-1.72v-11.04l-.02.02ZM102.06,17.34c.37,0,.71-.09.99-.25.28-.18.5-.39.64-.66s.21-.55.21-.83-.07-.57-.21-.83c-.14-.27-.35-.48-.64-.66-.28-.16-.6-.25-.99-.25h-2.13v3.47s2.13,0,2.13,0Z"/>
    <path class="st5" d="M109.51,22.75c-.87-.51-1.56-1.2-2.06-2.09s-.74-1.86-.74-2.91.25-2.02.74-2.91,1.19-1.58,2.06-2.09,1.84-.76,2.91-.76,2.04.25,2.91.76c.87.51,1.56,1.2,2.06,2.09.5.89.76,1.84.76,2.91s-.25,2.04-.74,2.91c-.5.89-1.19,1.58-2.06,2.09-.87.51-1.84.76-2.91.76s-2.04-.25-2.91-.76h-.02ZM114.43,21.35c.6-.35,1.08-.83,1.44-1.45.35-.62.53-1.33.53-2.14s-.18-1.51-.53-2.14-.83-1.1-1.44-1.45-1.28-.53-2-.53-1.4.18-2,.53-1.08.83-1.44,1.45-.53,1.33-.53,2.14.18,1.51.53,2.14c.35.62.83,1.1,1.44,1.45s1.28.53,2,.53,1.4-.18,2-.53Z"/>
    <path class="st5" d="M120.12,12.22h2.06l4.93,8.03h.09l-.09-2.13v-5.9h1.72v11.04h-1.81l-5.17-8.45h-.09l.09,2.13v6.32h-1.72s0-11.04,0-11.04Z"/>
    <path class="st5" d="M131.33,12.22h1.72v11.04h-1.72v-11.04Z"/>
    <path class="st5" d="M135.57,12.22h4.15c.58,0,1.13.12,1.63.39.5.27.9.6,1.19,1.06.3.44.44.96.44,1.49s-.14,1.01-.41,1.42c-.27.41-.64.71-1.06.9v.09c.55.19,1.01.51,1.35.97s.51.97.51,1.59-.16,1.15-.48,1.61c-.32.48-.73.83-1.26,1.1-.53.27-1.1.39-1.74.39h-4.34v-11.04l.02.02ZM139.64,16.85c.5,0,.89-.16,1.19-.46s.46-.66.46-1.06-.14-.74-.44-1.06c-.3-.3-.67-.46-1.15-.46h-2.41v3.03h2.34l.02.02ZM139.91,21.67c.53,0,.94-.16,1.26-.5s.46-.71.46-1.13-.16-.81-.48-1.15c-.32-.32-.76-.48-1.31-.48h-2.55v3.26h2.62Z"/>
    <path class="st5" d="M145.26,12.22h1.72v9.39h4.73v1.65h-6.47v-11.04h.02Z"/>
    <path class="st5" d="M153.46,12.22h6.71v1.65h-4.98v3.05h4.48v1.63h-4.48v3.05h4.98v1.65h-6.71v-11.04.02Z"/>
    <path class="st5" d="M166.16,22.71c-.73-.53-1.24-1.28-1.51-2.25l1.63-.66c.16.6.46,1.1.87,1.49.41.39.92.58,1.51.58.55,0,1.01-.14,1.38-.43s.57-.67.57-1.17c0-.46-.16-.83-.5-1.12s-.92-.58-1.75-.89l-.69-.25c-.74-.25-1.36-.62-1.86-1.12-.5-.48-.76-1.12-.76-1.91,0-.55.14-1.05.44-1.51s.71-.83,1.24-1.1,1.13-.41,1.79-.41c.96,0,1.74.23,2.3.71.58.46.96.99,1.15,1.58l-1.56.66c-.11-.35-.34-.66-.66-.92s-.73-.41-1.24-.41-.92.12-1.28.39c-.35.27-.51.58-.51.99,0,.37.16.69.46.94.3.25.8.48,1.45.71l.69.23c.94.34,1.68.76,2.2,1.29s.78,1.24.78,2.13c0,.73-.18,1.33-.55,1.81-.37.5-.83.85-1.42,1.08-.57.23-1.15.35-1.77.35-.92,0-1.74-.27-2.46-.8l.05-.02Z"/>
    <path class="st5" d="M176.14,22.96c-.64-.37-1.12-.89-1.47-1.58s-.53-1.47-.53-2.36v-6.8h1.72v6.89c0,.81.21,1.47.64,1.98s1.03.76,1.82.76,1.4-.25,1.82-.76c.43-.5.64-1.17.64-1.98v-6.89h1.72v6.8c0,.89-.18,1.67-.51,2.34s-.81,1.2-1.45,1.58c-.62.37-1.36.57-2.21.57s-1.56-.18-2.18-.55Z"/>
    <path class="st5" d="M184.82,12.22h3.88c.66,0,1.26.14,1.81.43s.97.69,1.29,1.2.46,1.1.46,1.74c0,.74-.23,1.4-.71,1.97-.48.57-1.08.96-1.79,1.15v.07l3.01,4.36v.09h-2l-2.91-4.32h-1.29v4.32h-1.72v-11.04l-.04.04ZM188.66,17.34c.51,0,.96-.16,1.31-.5s.53-.74.53-1.26c0-.28-.07-.57-.21-.83-.14-.27-.35-.48-.62-.66-.27-.18-.58-.25-.96-.25h-2.18v3.49h2.13Z"/>
  </g>
</svg>