<?xml version="1.0" encoding="UTF-8"?>
<svg id="artwork" xmlns="http://www.w3.org/2000/svg" version="1.1" viewBox="0 0 238.96 70.87">
  <!-- Generator: Adobe Illustrator 29.8.3, SVG Export Plug-In . SVG Version: 2.1.1 Build 3)  -->
  <defs>
    <style>
      .st0 {
        fill: #4285f4;
      }

      .st1 {
        isolation: isolate;
      }

      .st2 {
        fill: #a6a6a6;
      }

      .st3 {
        fill: #34a853;
      }

      .st4 {
        fill: #fbbc04;
      }

      .st5 {
        fill: #fff;
      }

      .st6 {
        fill: #ea4335;
      }
    </style>
  </defs>
  <g>
    <rect x="-.11" y="0" width="239.17" height="70.87" rx="8.86" ry="8.86"/>
    <path class="st2" d="M230.21,1.42c4.11,0,7.44,3.33,7.44,7.44v53.15c0,4.11-3.33,7.44-7.44,7.44H8.75c-4.11,0-7.44-3.33-7.44-7.44V8.86C1.31,4.75,4.64,1.42,8.75,1.42h221.46M230.21,0H8.75C3.88,0-.11,3.99-.11,8.86v53.15c0,4.87,3.99,8.86,8.86,8.86h221.46c4.87,0,8.86-3.99,8.86-8.86V8.86C239.07,3.99,235.08,0,230.21,0h0Z"/>
  </g>
  <g class="st1">
    <g class="st1">
      <path class="st5" d="M72.47,50.99c-1.05-.61-1.89-1.44-2.51-2.51s-.93-2.25-.93-3.53.31-2.47.93-3.54c.62-1.07,1.46-1.9,2.51-2.51s2.21-.91,3.46-.91c.98,0,1.9.17,2.76.52.86.35,1.57.84,2.13,1.47l-1.13,1.13c-.42-.52-.96-.92-1.62-1.2-.66-.28-1.36-.42-2.12-.42-.94,0-1.82.23-2.63.68-.81.45-1.46,1.09-1.95,1.92-.49.82-.73,1.78-.73,2.86s.24,2.03.73,2.86c.49.82,1.14,1.46,1.96,1.92.82.45,1.69.68,2.62.68s1.64-.14,2.24-.42,1.12-.65,1.55-1.11c.32-.35.58-.77.78-1.26.2-.49.32-1.03.37-1.63h-4.93v-1.47h6.4c.06.35.09.67.09.97,0,.82-.13,1.62-.39,2.39-.26.78-.68,1.45-1.25,2.04-1.23,1.33-2.86,1.99-4.89,1.99-1.25,0-2.41-.3-3.46-.91Z"/>
      <path class="st5" d="M86.25,51.24c-.74-.45-1.32-1.05-1.74-1.82-.42-.77-.62-1.62-.62-2.55s.21-1.78.62-2.55c.42-.77,1-1.38,1.74-1.82s1.58-.67,2.51-.67,1.77.22,2.51.67,1.32,1.05,1.74,1.82.62,1.62.62,2.55-.21,1.78-.62,2.55c-.42.77-1,1.38-1.74,1.82s-1.58.67-2.51.67-1.77-.22-2.51-.67ZM90.39,50.04c.5-.29.9-.71,1.21-1.25.3-.55.46-1.18.46-1.92s-.15-1.37-.46-1.92c-.3-.55-.71-.96-1.21-1.26-.5-.29-1.04-.44-1.63-.44s-1.13.15-1.64.44c-.51.29-.92.71-1.22,1.26-.3.54-.46,1.18-.46,1.92s.15,1.37.46,1.92c.3.55.71.96,1.22,1.25.51.29,1.05.44,1.64.44s1.13-.15,1.63-.44Z"/>
      <path class="st5" d="M97.34,51.24c-.74-.45-1.32-1.05-1.74-1.82-.42-.77-.62-1.62-.62-2.55s.21-1.78.62-2.55c.42-.77,1-1.38,1.74-1.82s1.58-.67,2.51-.67,1.77.22,2.51.67,1.32,1.05,1.74,1.82.62,1.62.62,2.55-.21,1.78-.62,2.55c-.42.77-1,1.38-1.74,1.82s-1.58.67-2.51.67-1.77-.22-2.51-.67ZM101.48,50.04c.5-.29.9-.71,1.21-1.25.3-.55.46-1.18.46-1.92s-.15-1.37-.46-1.92c-.3-.55-.71-.96-1.21-1.26-.5-.29-1.04-.44-1.63-.44s-1.13.15-1.64.44c-.51.29-.92.71-1.22,1.26-.3.54-.46,1.18-.46,1.92s.15,1.37.46,1.92c.3.55.71.96,1.22,1.25.51.29,1.05.44,1.64.44s1.13-.15,1.63-.44Z"/>
      <path class="st5" d="M107.97,55.14c-.73-.52-1.21-1.15-1.46-1.88l1.43-.61c.21.54.56.99,1.05,1.33.49.34,1.07.51,1.74.51.98,0,1.74-.27,2.28-.82.54-.55.81-1.33.81-2.34v-1.06h-.07c-.31.48-.75.88-1.31,1.18-.56.3-1.21.46-1.93.46-.82,0-1.57-.21-2.24-.64-.68-.43-1.21-1.02-1.61-1.79-.4-.76-.6-1.64-.6-2.61s.2-1.83.6-2.61c.4-.77.93-1.37,1.61-1.8.68-.43,1.42-.64,2.24-.64.72,0,1.36.15,1.93.46.56.3,1,.7,1.31,1.2h.07v-1.36h1.51v9.12c0,1.53-.42,2.69-1.27,3.49s-1.95,1.2-3.33,1.2c-1.12,0-2.04-.26-2.76-.78ZM112.29,50.04c.47-.29.84-.71,1.12-1.25s.42-1.18.42-1.93-.14-1.4-.42-1.95-.65-.95-1.12-1.24c-.46-.28-.98-.43-1.55-.43s-1.09.15-1.56.43c-.47.29-.85.71-1.13,1.25-.28.54-.42,1.18-.42,1.93s.14,1.39.42,1.94c.28.55.65.96,1.13,1.25.47.28.99.42,1.56.42s1.09-.14,1.55-.43Z"/>
      <path class="st5" d="M117.67,38.29h1.58v13.32h-1.58v-13.32Z"/>
      <path class="st5" d="M134.86,38.29h4.48c.74,0,1.43.17,2.06.5s1.14.8,1.52,1.41c.38.6.57,1.28.57,2.04s-.19,1.44-.57,2.04c-.38.6-.88,1.07-1.52,1.4-.63.33-1.32.5-2.06.5h-2.92v5.43h-1.56v-13.32ZM139.38,44.67c.5,0,.93-.12,1.31-.35.38-.24.67-.54.88-.91.21-.37.32-.76.32-1.17s-.11-.8-.32-1.17c-.21-.37-.51-.68-.88-.91-.38-.24-.82-.35-1.31-.35h-2.96v4.87h2.96Z"/>
      <path class="st5" d="M145.35,38.29h1.58v13.32h-1.58v-13.32Z"/>
      <path class="st5" d="M150.36,51.5c-.55-.27-.97-.65-1.26-1.13-.3-.48-.45-1.02-.45-1.63,0-1,.38-1.79,1.13-2.35.76-.56,1.71-.85,2.86-.85.57,0,1.1.06,1.59.19.49.12.87.27,1.12.43v-.58c0-.71-.25-1.27-.74-1.7s-1.12-.64-1.88-.64c-.53,0-1.02.12-1.47.34-.45.23-.8.55-1.06.96l-1.19-.89c.37-.57.88-1.02,1.53-1.34s1.37-.48,2.17-.48c1.29,0,2.3.34,3.04,1.01.74.68,1.11,1.6,1.11,2.76v6.01h-1.51v-1.36h-.07c-.27.46-.68.85-1.23,1.17-.55.32-1.16.48-1.84.48s-1.31-.14-1.86-.41ZM153.85,50.1c.46-.27.83-.64,1.1-1.1s.41-.96.41-1.51c-.3-.2-.66-.36-1.1-.48-.43-.12-.89-.19-1.38-.19-.87,0-1.52.18-1.96.54s-.66.83-.66,1.4c0,.52.2.94.59,1.26.4.32.9.48,1.51.48.53,0,1.03-.14,1.49-.41Z"/>
      <path class="st5" d="M161.78,51.01l-3.93-8.89h1.71l2.98,7.05h.04l2.86-7.05h1.71l-5.86,13.51h-1.64l2.12-4.61Z"/>
    </g>
    <g class="st1">
      <path class="st5" d="M180.21,41.33v10.26h-1.51v-4.54l.35.5c-.32.3-.71.55-1.2.74s-1.03.3-1.61.3c-.73,0-1.36-.14-1.88-.41s-.92-.69-1.19-1.24c-.27-.55-.41-1.24-.41-2.06v-3.54h-1.47v-1.33h10.84v1.33h-1.93v-.02ZM178.71,41.33h-4.43v3.61c0,.53.07.97.23,1.31.14.34.37.6.66.76.3.16.64.25,1.05.25.55,0,1.06-.16,1.58-.46.5-.3.9-.67,1.22-1.08l-.3.97v-5.37Z"/>
      <path class="st5" d="M187.16,41.33l.6-.28c.14.32.23.62.28.94.05.32.09.67.09,1.06,0,.67-.14,1.28-.43,1.75-.28.5-.67.9-1.17,1.26-.5.35-1.08.67-1.75.94l.04-.19c.35.41.74.83,1.19,1.29.44.44.9.9,1.4,1.35l1.49,1.33-1.08,1.01c-.97-.89-1.82-1.7-2.52-2.44-.71-.74-1.29-1.45-1.77-2.14-.3-.44-.53-.81-.66-1.13s-.19-.62-.19-.89.09-.51.27-.69c.18-.18.41-.27.73-.27.34,0,.66.12.97.35.3.23.62.57.92.97l-.92-.23c.71-.23,1.22-.57,1.54-.97s.48-.92.48-1.51c0-.35-.05-.71-.14-1.06s-.21-.6-.34-.74l.83.27h-5.12v-1.33h7.88v1.33h-2.6l-.02.04Z"/>
    </g>
    <g class="st1">
      <path class="st5" d="M202.71,41.33v10.26h-1.51v-4.54l.35.5c-.3.3-.71.55-1.2.74s-1.03.3-1.61.3c-.73,0-1.36-.14-1.88-.41s-.92-.69-1.19-1.24c-.27-.55-.41-1.24-.41-2.06v-3.54h-1.47v-1.33h10.84v1.33h-1.93v-.02ZM201.21,41.33h-4.43v3.61c0,.53.07.97.23,1.31.14.34.37.6.66.76s.64.25,1.05.25c.55,0,1.06-.16,1.58-.46.5-.3.9-.67,1.22-1.08l-.3.97v-5.37Z"/>
      <path class="st5" d="M207.53,41.33v10.26h-1.51v-10.26h-1.65v-1.33h5.08v1.33h-1.93Z"/>
      <path class="st5" d="M219.76,41.33h-1.75v2.99c0,.66-.09,1.2-.25,1.63s-.43.76-.78,1.03-.81.46-1.36.62l-.71-1.28c.43-.12.74-.27.97-.44.23-.16.39-.39.48-.67s.14-.66.14-1.1v-2.76h-4.34v3.76c0,.46.02.83.07,1.13s.14.55.28.76.34.41.6.58c.27.18.62.39,1.06.62l1.45.74c.64.32,1.12.62,1.47.89.35.27.58.53.73.81s.21.58.21.92c0,.32-.05.62-.16.92s-.27.58-.48.87l-1.45-.62c.18-.19.3-.37.39-.57s.12-.39.12-.58-.04-.37-.12-.51c-.07-.14-.23-.3-.46-.44-.23-.16-.57-.34-1.01-.57l-1.58-.81c-.73-.37-1.28-.73-1.65-1.05s-.64-.69-.78-1.12-.21-.99-.21-1.68v-4.04h-1.47v-1.33h10.56v1.33l.02-.04Z"/>
      <path class="st5" d="M216.04,37.22c0-.3.11-.55.3-.76.21-.21.44-.32.71-.32.28,0,.53.11.73.32s.3.46.3.76-.11.55-.3.76-.44.32-.73.32-.51-.11-.71-.32c-.21-.21-.3-.46-.3-.76Z"/>
    </g>
  </g>
  <g class="st1">
    <path class="st5" d="M125.81,51.69c-.81-.23-1.5-.67-2.09-1.3-.59-.63-1-1.41-1.25-2.33-.24-.89-.27-1.75-.11-2.59.17-.84.52-1.57,1.08-2.2.55-.62,1.27-1.05,2.16-1.29.9-.24,1.73-.25,2.5-.03s1.42.64,1.97,1.25c.54.61.94,1.37,1.18,2.28.05.18.07.34.07.48l-7.24,1.95c.22.69.55,1.23.98,1.63.43.4.9.66,1.43.77.53.12,1.04.11,1.54-.03,1.17-.32,1.93-1.11,2.27-2.38l1.46.28c-.2.85-.57,1.58-1.13,2.19-.56.61-1.32,1.05-2.28,1.31-.87.24-1.72.24-2.52,0ZM129.4,45.13c-.13-.38-.34-.73-.63-1.06-.29-.33-.68-.57-1.17-.73-.48-.15-1.04-.15-1.66.02-.72.19-1.26.59-1.64,1.18-.37.6-.54,1.29-.49,2.09l5.59-1.5Z"/>
  </g>
  <g>
    <path class="st6" d="M36,34.41l-18.87,20.02h0c.58,2.18,2.57,3.77,4.93,3.77.94,0,1.82-.25,2.59-.71l.05-.04,21.22-12.24-9.94-10.82h.02v.02Z"/>
    <path class="st4" d="M55.1,31h-.02l-9.16-5.33-10.33,9.19,10.36,10.36,9.12-5.26c1.59-.87,2.68-2.55,2.68-4.48s-1.06-3.61-2.66-4.46h0v-.02Z"/>
    <path class="st0" d="M17.15,16.44c-.11.43-.18.85-.18,1.31v35.38c0,.46.05.89.18,1.31l19.51-19.51s-19.51-18.5-19.51-18.5Z"/>
    <path class="st3" d="M36.14,35.43l9.76-9.76-21.21-12.3c-.76-.46-1.67-.73-2.64-.73-2.36,0-4.34,1.61-4.93,3.77h0l19.01,18.99h0v.02Z"/>
  </g>
  <g>
    <path class="st5" d="M73.93,23.42c-.27,0-.55.04-.83.09s-.53.14-.78.23c-.27-.18-.51-.37-.74-.58s-.43-.46-.57-.73-.21-.55-.21-.85c0-.53.18-.92.51-1.2.34-.27.87-.41,1.59-.41h1.75v-1.22h-4.57v-1.01h7.16v1.01h-1.44v2.23h-2.8c-.37,0-.66.05-.81.18-.18.12-.25.3-.25.53,0,.19.05.37.18.53s.27.3.43.44c.23-.09.48-.14.74-.19s.53-.07.81-.07c.51,0,.94.09,1.28.25.34.16.6.39.78.69s.27.64.27,1.05c0,.74-.28,1.29-.85,1.65-.57.35-1.33.53-2.29.53h-.64c-.58-.04-1.06-.14-1.42-.32-.37-.19-.55-.46-.55-.81,0-.21.07-.39.21-.51.14-.12.32-.19.57-.19.27,0,.51.11.74.3.21.19.46.53.73.99.32.35.67.71,1.03,1.06.37.35.74.71,1.13,1.06l-.99.74c-.41-.44-.8-.89-1.15-1.35s-.69-.9-.99-1.38l-.37-.6c.23.04.51.05.81.07.32,0,.55.02.74.02.41,0,.76-.04,1.1-.11s.58-.19.76-.37c.19-.18.28-.43.28-.74,0-.3-.11-.53-.32-.71-.21-.18-.55-.25-1.03-.25l-.02-.04Z"/>
    <path class="st5" d="M81.11,26.77c-.71-.69-1.33-1.38-1.88-2.06s-.94-1.24-1.2-1.7c-.12-.25-.23-.48-.3-.67-.07-.21-.11-.41-.11-.58,0-.25.07-.44.21-.57.14-.12.32-.19.57-.19s.48.09.71.27.46.41.69.71l-.67-.07c.43-.12.71-.37.87-.73s.23-.73.23-1.1c0-.34-.04-.62-.11-.89-.07-.25-.14-.46-.23-.6l.58.18h-3.44v-1.01h5.92v1.01h-2.36l.48-.21c.11.23.18.48.23.74s.07.57.07.9c0,.37-.05.73-.16,1.05s-.27.6-.5.85l-.05.11c-.18.19-.37.37-.62.53s-.55.3-.94.43l-.04-.16c.23.32.5.64.8.97s.62.66.96.99.73.69,1.12,1.06l-.87.76.04-.02ZM82.72,23.12c-.39,0-.8-.04-1.24-.14-.44-.09-.87-.25-1.29-.48l.39-.85c.39.16.74.27,1.06.34s.69.11,1.06.11.76-.04,1.12-.11.71-.19,1.06-.35v1.08c-.34.14-.67.25-1.05.3s-.74.09-1.13.09l.02.02ZM84.22,26.57v-7.81h-1.56v-1.01h4.16v1.01h-1.45v7.81s-1.15,0-1.15,0Z"/>
    <path class="st5" d="M84.22,17.86c-.19-.64-.37-1.15-.51-1.52-.14-.39-.28-.69-.43-.89s-.28-.34-.46-.43c-.18-.07-.37-.11-.62-.11-.19,0-.41.02-.6.07s-.39.09-.57.16l-.32-1.01c.19-.07.43-.14.67-.18s.5-.07.74-.07c.41,0,.76.05,1.06.18.28.12.55.32.78.62s.44.71.64,1.22.43,1.17.67,1.97h-1.05l-.02-.02Z"/>
  </g>
</svg>