<?xml version="1.0" encoding="UTF-8"?>
<svg id="artwork" xmlns="http://www.w3.org/2000/svg" version="1.1" viewBox="0 0 238.96 70.87">
  <!-- Generator: Adobe Illustrator 29.8.3, SVG Export Plug-In . SVG Version: 2.1.1 Build 3)  -->
  <defs>
    <style>
      .st0 {
        fill: #4285f4;
      }

      .st1 {
        fill: #a6a6a6;
      }

      .st2 {
        stroke: #fff;
        stroke-miterlimit: 10;
        stroke-width: .2px;
      }

      .st2, .st3 {
        fill: #fff;
      }

      .st4 {
        fill: #34a853;
      }

      .st5 {
        fill: #fbbc04;
      }

      .st6 {
        fill: #ea4335;
      }
    </style>
  </defs>
  <g>
    <rect x="-.11" y="0" width="239.17" height="70.87" rx="8.86" ry="8.86"/>
    <path class="st1" d="M230.21,1.42c4.1,0,7.44,3.34,7.44,7.44v53.15c0,4.1-3.34,7.44-7.44,7.44H8.75c-4.1,0-7.44-3.34-7.44-7.44V8.86C1.31,4.76,4.65,1.42,8.75,1.42h221.46M230.21,0H8.75C3.88,0-.11,3.99-.11,8.86v53.15c0,4.87,3.99,8.86,8.86,8.86h221.46c4.87,0,8.86-3.99,8.86-8.86V8.86C239.07,3.99,235.08,0,230.21,0h0Z"/>
    <path class="st3" d="M120.61,38.54c-4.17,0-7.56,3.17-7.56,7.53s3.4,7.53,7.56,7.53,7.56-3.2,7.56-7.53-3.4-7.53-7.56-7.53ZM120.61,50.64c-2.28,0-4.25-1.88-4.25-4.57s1.97-4.57,4.25-4.57,4.25,1.85,4.25,4.57-1.97,4.57-4.25,4.57ZM104.11,38.54c-4.17,0-7.56,3.17-7.56,7.53s3.4,7.53,7.56,7.53,7.56-3.2,7.56-7.53-3.4-7.53-7.56-7.53ZM104.11,50.64c-2.28,0-4.25-1.88-4.25-4.57s1.97-4.57,4.25-4.57,4.25,1.85,4.25,4.57-1.97,4.57-4.25,4.57ZM84.48,40.85v3.2h7.65c-.23,1.8-.83,3.11-1.74,4.03-1.11,1.11-2.85,2.34-5.91,2.34-4.71,0-8.39-3.8-8.39-8.51s3.68-8.51,8.39-8.51c2.54,0,4.4,1,5.76,2.28l2.26-2.26c-1.91-1.83-4.45-3.22-8.02-3.22-6.45,0-11.87,5.25-11.87,11.7s5.42,11.7,11.87,11.7c3.48,0,6.11-1.14,8.16-3.28,2.11-2.11,2.77-5.08,2.77-7.48,0-.74-.06-1.43-.17-2h-10.76,0ZM164.75,43.33c-.63-1.68-2.54-4.8-6.45-4.8s-7.11,3.05-7.11,7.53c0,4.22,3.2,7.53,7.48,7.53,3.45,0,5.45-2.11,6.28-3.34l-2.57-1.71c-.86,1.26-2.03,2.08-3.71,2.08s-2.88-.77-3.65-2.28l10.08-4.17-.34-.86h0ZM154.47,45.84c-.09-2.91,2.26-4.4,3.94-4.4,1.31,0,2.43.66,2.8,1.6l-6.74,2.8ZM146.28,53.15h3.31v-22.15h-3.31v22.15ZM140.86,40.22h-.11c-.74-.88-2.17-1.68-3.97-1.68-3.77,0-7.22,3.31-7.22,7.56s3.45,7.51,7.22,7.51c1.8,0,3.22-.8,3.97-1.71h.11v1.08c0,2.88-1.54,4.42-4.03,4.42-2.03,0-3.28-1.46-3.8-2.68l-2.88,1.2c.83,2,3.03,4.45,6.68,4.45,3.88,0,7.16-2.28,7.16-7.85v-13.53h-3.14v1.23ZM137.06,50.64c-2.28,0-4.2-1.91-4.2-4.54s1.91-4.6,4.2-4.6,4.03,1.94,4.03,4.6-1.77,4.54-4.03,4.54ZM180.26,31h-7.92v22.15h3.31v-8.39h4.62c3.66,0,7.27-2.65,7.27-6.88s-3.6-6.88-7.27-6.88ZM180.34,41.68h-4.7v-7.59h4.7c2.47,0,3.87,2.05,3.87,3.8s-1.4,3.8-3.87,3.8h0ZM200.77,38.5c-2.39,0-4.87,1.05-5.9,3.39l2.94,1.23c.63-1.23,1.79-1.62,3.02-1.62,1.71,0,3.45,1.03,3.48,2.85v.23c-.6-.34-1.88-.86-3.45-.86-3.16,0-6.38,1.74-6.38,4.99,0,2.96,2.59,4.87,5.5,4.87,2.22,0,3.45-1,4.22-2.16h.11v1.71h3.19v-8.49c0-3.93-2.94-6.13-6.73-6.13h0ZM200.38,50.63c-1.08,0-2.59-.54-2.59-1.88,0-1.71,1.88-2.37,3.5-2.37,1.45,0,2.14.31,3.02.74-.26,2.05-2.02,3.5-3.93,3.5ZM219.12,38.98l-3.79,9.6h-.11l-3.93-9.6h-3.56l5.9,13.42-3.36,7.47h3.45l9.09-20.89h-3.68ZM189.35,53.15h3.31v-22.15h-3.31v22.15Z"/>
    <g>
      <path class="st6" d="M36.6,34.41l-18.86,20.02s0,0,0,.01c.58,2.17,2.56,3.77,4.92,3.77.94,0,1.83-.26,2.58-.7l.06-.04,21.23-12.25-9.94-10.82Z"/>
      <path class="st5" d="M55.68,31h-.02s-9.17-5.33-9.17-5.33l-10.33,9.19,10.36,10.36,9.12-5.26c1.6-.86,2.68-2.55,2.68-4.49s-1.07-3.61-2.65-4.47h0Z"/>
      <path class="st0" d="M17.73,16.44c-.11.42-.17.86-.17,1.31v35.38c0,.45.06.89.17,1.31l19.51-19.51-19.51-18.49Z"/>
      <path class="st4" d="M36.74,35.43l9.76-9.76-21.21-12.3c-.77-.46-1.67-.73-2.63-.73-2.36,0-4.34,1.6-4.92,3.78h0s19,19,19,19h0Z"/>
    </g>
  </g>
  <g>
    <path class="st2" d="M81.78,21.66c-1.05,1.08-2.34,1.61-3.9,1.61s-2.85-.54-3.9-1.61c-1.05-1.07-1.57-2.39-1.57-3.94s.52-2.87,1.57-3.94c1.04-1.08,2.34-1.61,3.9-1.61s2.84.54,3.89,1.62,1.57,2.39,1.57,3.93-.52,2.87-1.57,3.94ZM74.99,20.77c.79.8,1.75,1.19,2.89,1.19s2.1-.4,2.89-1.19c.79-.8,1.18-1.81,1.18-3.05s-.4-2.26-1.18-3.05c-.78-.8-1.75-1.19-2.89-1.19s-2.1.4-2.89,1.19c-.78.8-1.18,1.81-1.18,3.05s.4,2.26,1.18,3.05Z"/>
    <path class="st2" d="M85.26,23.03v-10.63h1.66l5.17,8.27h.06l-.06-2.05v-6.22h1.37v10.63h-1.43l-5.41-8.67h-.06l.06,2.05v6.62h-1.36,0Z"/>
    <path class="st2" d="M99.51,23.03h-1.37v-9.32h-2.97v-1.31h7.3v1.31h-2.97s0,9.32,0,9.32Z"/>
    <path class="st2" d="M104.2,23.03v-10.63h3.25c1.63,0,2.94.49,3.92,1.48.98.99,1.47,2.26,1.47,3.84s-.49,2.85-1.47,3.84c-.98.99-2.29,1.48-3.92,1.48h-3.25ZM105.57,21.73h1.89c1.23,0,2.2-.35,2.92-1.05.72-.7,1.08-1.69,1.08-2.95s-.36-2.24-1.08-2.95c-.72-.71-1.69-1.06-2.92-1.06h-1.89s0,8.02,0,8.02Z"/>
    <path class="st2" d="M120.96,13.71h-4.84v3.37h4.37v1.28h-4.37v3.37h4.84v1.31h-6.21v-10.63h6.21v1.31h0Z"/>
    <path class="st2" d="M130.97,12.4v.06l-3.95,4.56,4.22,5.95v.06h-1.68l-3.46-4.96-1.63,1.89v3.07h-1.37v-10.63h1.37v5.48h.06l4.68-5.48h1.77,0Z"/>
    <path class="st2" d="M136.2,23.03v-10.63h1.36v4.56h5.31v-4.56h1.37v10.63h-1.37v-4.8h-5.31v4.8h-1.36Z"/>
    <path class="st2" d="M152.88,13.71h-4.84v3.37h4.37v1.28h-4.37v3.37h4.84v1.31h-6.21v-10.63h6.21v1.31h0Z"/>
    <path class="st2" d="M158.64,23.03h-1.37v-9.32h-2.97v-1.31h7.3v1.31h-2.97s0,9.32,0,9.32Z"/>
    <path class="st2" d="M175.44,21.66c-1.05,1.08-2.34,1.61-3.9,1.61s-2.85-.54-3.9-1.61c-1.05-1.07-1.57-2.39-1.57-3.94s.52-2.87,1.57-3.94c1.04-1.08,2.34-1.61,3.9-1.61s2.84.54,3.89,1.62c1.05,1.08,1.57,2.39,1.57,3.93s-.52,2.87-1.57,3.94ZM168.66,20.77c.79.8,1.75,1.19,2.89,1.19s2.1-.4,2.89-1.19c.79-.8,1.18-1.81,1.18-3.05s-.4-2.26-1.18-3.05c-.78-.8-1.75-1.19-2.89-1.19s-2.1.4-2.89,1.19c-.78.8-1.18,1.81-1.18,3.05s.4,2.26,1.18,3.05Z"/>
    <path class="st2" d="M180.29,23.03h-1.36v-10.63h3.62c.9,0,1.68.3,2.34.9.66.6.99,1.35.99,2.26s-.33,1.66-.99,2.26c-.66.6-1.44.9-2.34.9h-2.26v4.31h0ZM180.29,17.42h2.29c.57,0,1.03-.19,1.38-.58s.52-.81.52-1.28-.17-.89-.52-1.28-.81-.58-1.38-.58h-2.29v3.71Z"/>
  </g>
</svg>