<?xml version="1.0" encoding="UTF-8"?>
<svg id="artwork" xmlns="http://www.w3.org/2000/svg" version="1.1" viewBox="0 0 239.53 70.87">
  <!-- Generator: Adobe Illustrator 29.8.3, SVG Export Plug-In . SVG Version: 2.1.1 Build 3)  -->
  <defs>
    <style>
      .st0 {
        fill: #4285f4;
      }

      .st1 {
        fill: #a6a6a6;
      }

      .st2 {
        fill: #34a853;
      }

      .st3 {
        fill: #fbbc04;
      }

      .st4 {
        fill: #fff;
      }

      .st5 {
        fill: #ea4335;
      }
    </style>
  </defs>
  <g>
    <rect x=".18" y="0" width="239.17" height="70.87" rx="8.86" ry="8.86"/>
    <path class="st1" d="M230.49,1.42c4.11,0,7.44,3.33,7.44,7.44v53.15c0,4.11-3.33,7.44-7.44,7.44H9.04c-4.11,0-7.44-3.33-7.44-7.44V8.86C1.59,4.75,4.93,1.42,9.04,1.42h221.46M230.49,0H9.04C4.16,0,.18,3.99.18,8.86v53.15c0,4.87,3.99,8.86,8.86,8.86h221.46c4.87,0,8.86-3.99,8.86-8.86V8.86C239.35,3.99,235.36,0,230.49,0h0Z"/>
    <path class="st4" d="M120.9,38.53c-4.16,0-7.56,3.17-7.56,7.53s3.4,7.53,7.56,7.53,7.56-3.19,7.56-7.53-3.4-7.53-7.56-7.53ZM120.9,50.63c-2.29,0-4.25-1.88-4.25-4.57s1.97-4.57,4.25-4.57,4.25,1.86,4.25,4.57-1.97,4.57-4.25,4.57ZM104.39,38.53c-4.16,0-7.56,3.17-7.56,7.53s3.4,7.53,7.56,7.53,7.56-3.19,7.56-7.53-3.4-7.53-7.56-7.53ZM104.39,50.63c-2.29,0-4.25-1.88-4.25-4.57s1.97-4.57,4.25-4.57,4.25,1.86,4.25,4.57-1.97,4.57-4.25,4.57ZM84.76,40.85v3.19h7.65c-.23,1.81-.83,3.12-1.74,4.02-1.12,1.12-2.85,2.34-5.9,2.34-4.71,0-8.4-3.79-8.4-8.5s3.69-8.5,8.4-8.5c2.53,0,4.39.99,5.76,2.29l2.25-2.25c-1.91-1.82-4.45-3.22-8.03-3.22-6.45,0-11.87,5.24-11.87,11.71s5.42,11.71,11.87,11.71c3.49,0,6.11-1.13,8.17-3.28,2.11-2.11,2.76-5.08,2.76-7.48,0-.74-.05-1.44-.18-2h-10.75v-.02ZM165.03,43.33c-.62-1.68-2.53-4.8-6.45-4.8s-7.1,3.05-7.1,7.53c0,4.22,3.19,7.53,7.48,7.53,3.45,0,5.46-2.11,6.27-3.33l-2.57-1.72c-.85,1.26-2.02,2.09-3.7,2.09s-2.89-.78-3.65-2.29l10.08-4.16-.34-.85s-.02,0-.02,0ZM154.75,45.85c-.09-2.91,2.25-4.39,3.93-4.39,1.31,0,2.43.66,2.8,1.59l-6.73,2.8ZM146.57,53.15h3.31v-22.15h-3.31v22.15ZM141.15,40.22h-.11c-.74-.89-2.16-1.68-3.97-1.68-3.77,0-7.23,3.31-7.23,7.56s3.45,7.51,7.23,7.51c1.81,0,3.22-.8,3.97-1.72h.11v1.08c0,2.89-1.54,4.43-4.02,4.43-2.02,0-3.28-1.45-3.79-2.68l-2.89,1.2c.83,2,3.03,4.45,6.68,4.45,3.88,0,7.16-2.29,7.16-7.85v-13.54h-3.14s0,1.22,0,1.22ZM137.34,50.63c-2.29,0-4.2-1.91-4.2-4.54s1.91-4.59,4.2-4.59,4.02,1.95,4.02,4.59-1.77,4.54-4.02,4.54ZM180.55,31h-7.92v22.15h3.31v-8.4h4.62c3.67,0,7.26-2.66,7.26-6.87s-3.6-6.87-7.26-6.87h-.02ZM180.62,41.67h-4.69v-7.6h4.69c2.48,0,3.88,2.06,3.88,3.79s-1.4,3.79-3.88,3.79h0v.02ZM201.06,38.5c-2.39,0-4.87,1.06-5.9,3.38l2.94,1.22c.62-1.22,1.79-1.63,3.01-1.63,1.7,0,3.45,1.03,3.47,2.85v.23c-.6-.34-1.88-.85-3.45-.85-3.17,0-6.38,1.74-6.38,4.98,0,2.96,2.59,4.87,5.49,4.87,2.21,0,3.45-.99,4.22-2.16h.11v1.72h3.19v-8.49c0-3.93-2.94-6.13-6.73-6.13h.04ZM200.66,50.63c-1.08,0-2.59-.55-2.59-1.88,0-1.7,1.88-2.36,3.51-2.36,1.45,0,2.14.32,3.01.74-.25,2.06-2.02,3.51-3.93,3.51h0v-.02ZM219.4,38.98l-3.79,9.6h-.11l-3.93-9.6h-3.56l5.9,13.43-3.37,7.46h3.45l9.09-20.89s-3.69,0-3.69,0ZM189.64,53.15h3.31v-22.15h-3.31v22.15Z"/>
    <g>
      <path class="st5" d="M36.89,34.41l-18.87,20.02h0c.58,2.18,2.57,3.77,4.93,3.77.94,0,1.82-.25,2.59-.71l.05-.04,21.22-12.24-9.94-10.82h.02v.02Z"/>
      <path class="st3" d="M55.97,31h-.02l-9.16-5.33-10.33,9.19,10.36,10.36,9.12-5.26c1.59-.87,2.68-2.55,2.68-4.48s-1.06-3.61-2.66-4.46h0v-.02Z"/>
      <path class="st0" d="M18.02,16.44c-.11.43-.18.85-.18,1.31v35.38c0,.46.05.89.18,1.31l19.51-19.51s-19.51-18.5-19.51-18.5Z"/>
      <path class="st2" d="M37.03,35.43l9.76-9.76-21.21-12.3c-.76-.46-1.67-.73-2.64-.73-2.36,0-4.34,1.61-4.93,3.77h0l19.01,18.99h0v.02Z"/>
    </g>
  </g>
  <g>
    <path class="st4" d="M79.83,12.65c-.55-.28-1.15-.43-1.79-.43h-3.83v11.04h1.72v-4.29h2.09c.66,0,1.24-.14,1.79-.43.55-.28.99-.69,1.31-1.2s.48-1.1.48-1.74-.16-1.22-.48-1.74-.76-.92-1.31-1.2l.02-.02ZM79.69,16.44c-.14.27-.35.48-.64.66-.28.18-.6.25-.99.25h-2.13v-3.47h2.13c.37,0,.71.09.99.25s.5.37.64.66c.14.27.21.55.21.83s-.07.57-.21.83Z"/>
    <path class="st4" d="M91.68,12.76c-.87-.51-1.84-.76-2.91-.76s-2.04.25-2.91.76c-.87.51-1.56,1.2-2.06,2.09-.5.89-.74,1.84-.74,2.91s.25,2.04.74,2.91c.5.89,1.19,1.58,2.06,2.09s1.84.76,2.91.76,2.04-.25,2.91-.76c.87-.51,1.56-1.2,2.06-2.09s.74-1.86.74-2.91-.25-2.02-.76-2.91c-.5-.89-1.19-1.58-2.06-2.09h.02ZM92.21,19.88c-.35.62-.83,1.1-1.44,1.45s-1.28.53-2,.53-1.4-.18-2-.53-1.08-.83-1.44-1.45c-.35-.62-.53-1.33-.53-2.14s.18-1.51.53-2.14.83-1.1,1.44-1.45c.6-.35,1.28-.53,2-.53s1.4.18,2,.53,1.08.83,1.44,1.45.53,1.33.53,2.14-.18,1.51-.53,2.14Z"/>
    <path class="st4" d="M102.65,17.59v-.09c.44-.21.8-.51,1.06-.9.27-.41.41-.87.41-1.42s-.14-1.05-.44-1.49c-.3-.46-.69-.81-1.19-1.06s-1.05-.39-1.63-.39h-4.15v11.04h4.32c.62,0,1.2-.12,1.74-.39.53-.27.96-.64,1.26-1.1.32-.48.48-1.01.48-1.61s-.18-1.13-.51-1.59-.8-.78-1.35-.97v-.02ZM98.45,13.82h2.41c.48,0,.85.16,1.15.46.3.3.44.66.44,1.06s-.16.76-.46,1.06-.71.46-1.19.46h-2.34v-3.03l-.02-.02ZM102.31,21.17c-.32.34-.73.5-1.26.5h-2.6v-3.26h2.55c.55,0,.97.16,1.29.48s.48.71.48,1.15-.16.81-.48,1.13h.02Z"/>
    <rect class="st4" x="106.74" y="12.22" width="1.72" height="11.04"/>
    <polygon class="st4" points="111.26 23.26 117.97 23.26 117.97 21.61 113 21.61 113 18.57 117.48 18.57 117.48 16.92 113 16.92 113 13.87 117.97 13.87 117.97 12.22 111.26 12.22 111.26 23.26"/>
    <path class="st4" d="M125.26,18.73c.73-.19,1.31-.58,1.79-1.15.48-.58.73-1.24.73-1.97,0-.66-.16-1.22-.48-1.74s-.74-.92-1.29-1.2-1.15-.43-1.81-.43h-3.88v11.04h1.72v-4.32h1.29l2.91,4.32h2v-.09l-3.03-4.36v-.07l.05-.04ZM122.05,17.34v-3.49h2.18c.37,0,.69.09.96.25s.48.39.62.66c.14.27.21.55.21.83,0,.51-.18.94-.53,1.26s-.8.5-1.31.5h-2.13Z"/>
    <polygon class="st4" points="137.34 14 137.34 12.22 129.83 12.22 129.83 13.87 135.32 13.87 129.58 21.49 129.58 23.26 137.39 23.26 137.39 21.61 131.62 21.61 137.34 14"/>
    <polygon class="st4" points="144.35 21.61 150.08 14 150.08 12.22 142.56 12.22 142.56 13.87 148.07 13.87 142.32 21.49 142.32 23.26 150.13 23.26 150.13 21.61 144.35 21.61"/>
  </g>
</svg>