<?xml version="1.0" encoding="UTF-8"?>
<svg id="artwork" xmlns="http://www.w3.org/2000/svg" version="1.1" viewBox="0 0 238.96 70.87">
  <!-- Generator: Adobe Illustrator 29.8.3, SVG Export Plug-In . SVG Version: 2.1.1 Build 3)  -->
  <defs>
    <style>
      .st0 {
        fill: #4285f4;
      }

      .st1 {
        fill: #a6a6a6;
      }

      .st2 {
        fill: #34a853;
      }

      .st3 {
        fill: #fbbc04;
      }

      .st4 {
        fill: #fff;
      }

      .st5 {
        fill: #ea4335;
      }
    </style>
  </defs>
  <g>
    <rect y="0" width="238.96" height="70.8" rx="8.85" ry="8.85"/>
    <path class="st1" d="M230.11,1.42c4.11,0,7.43,3.33,7.43,7.43v53.1c0,4.11-3.33,7.43-7.43,7.43H8.85c-4.11,0-7.43-3.33-7.43-7.43V8.85C1.42,4.74,4.74,1.42,8.85,1.42h221.26M230.11,0H8.85C3.98,0,0,3.98,0,8.85v53.1c0,4.87,3.98,8.85,8.85,8.85h221.26c4.87,0,8.85-3.98,8.85-8.85V8.85C238.96,3.98,234.98,0,230.11,0h0Z"/>
    <path class="st4" d="M120.61,38.5c-4.16,0-7.56,3.17-7.56,7.52s3.4,7.52,7.56,7.52,7.56-3.19,7.56-7.52-3.4-7.52-7.56-7.52ZM120.61,50.59c-2.28,0-4.25-1.88-4.25-4.57s1.96-4.57,4.25-4.57,4.25,1.86,4.25,4.57-1.96,4.57-4.25,4.57ZM104.12,38.5c-4.16,0-7.56,3.17-7.56,7.52s3.4,7.52,7.56,7.52,7.56-3.19,7.56-7.52-3.4-7.52-7.56-7.52ZM104.12,50.59c-2.28,0-4.25-1.88-4.25-4.57s1.96-4.57,4.25-4.57,4.25,1.86,4.25,4.57-1.96,4.57-4.25,4.57ZM84.5,40.82v3.19h7.65c-.23,1.81-.83,3.12-1.73,4.02-1.12,1.12-2.85,2.34-5.89,2.34-4.71,0-8.39-3.79-8.39-8.5s3.68-8.5,8.39-8.5c2.53,0,4.39.99,5.75,2.28l2.25-2.25c-1.91-1.82-4.44-3.22-8.02-3.22-6.44,0-11.86,5.24-11.86,11.7s5.42,11.7,11.86,11.7c3.49,0,6.11-1.13,8.16-3.27,2.11-2.11,2.76-5.08,2.76-7.47,0-.74-.05-1.43-.18-2h-10.74v-.02ZM164.71,43.3c-.62-1.68-2.53-4.8-6.44-4.8s-7.1,3.04-7.1,7.52c0,4.21,3.19,7.52,7.47,7.52,3.45,0,5.45-2.11,6.27-3.33l-2.57-1.72c-.85,1.26-2.02,2.09-3.7,2.09s-2.89-.78-3.65-2.28l10.07-4.16-.34-.85s-.02,0-.02,0ZM154.44,45.81c-.09-2.9,2.25-4.39,3.93-4.39,1.31,0,2.43.65,2.8,1.59l-6.73,2.8ZM146.26,53.1h3.31v-22.13h-3.31v22.13ZM140.85,40.18h-.11c-.74-.89-2.16-1.68-3.96-1.68-3.77,0-7.22,3.31-7.22,7.56s3.45,7.51,7.22,7.51c1.81,0,3.22-.8,3.96-1.72h.11v1.08c0,2.89-1.54,4.43-4.02,4.43-2.02,0-3.27-1.45-3.79-2.67l-2.89,1.2c.83,2,3.03,4.44,6.67,4.44,3.88,0,7.15-2.28,7.15-7.84v-13.52h-3.13s0,1.22,0,1.22ZM137.04,50.59c-2.28,0-4.2-1.91-4.2-4.53s1.91-4.58,4.2-4.58,4.02,1.95,4.02,4.58-1.77,4.53-4.02,4.53ZM180.21,30.98h-7.91v22.13h3.31v-8.39h4.62c3.66,0,7.26-2.66,7.26-6.87s-3.59-6.87-7.26-6.87h-.02ZM180.28,41.63h-4.69v-7.59h4.69c2.48,0,3.88,2.05,3.88,3.79s-1.4,3.79-3.88,3.79h0v.02ZM200.71,38.46c-2.39,0-4.87,1.06-5.89,3.38l2.94,1.22c.62-1.22,1.79-1.63,3.01-1.63,1.7,0,3.45,1.03,3.47,2.85v.23c-.6-.34-1.88-.85-3.45-.85-3.17,0-6.37,1.73-6.37,4.97,0,2.96,2.58,4.87,5.49,4.87,2.21,0,3.45-.99,4.21-2.16h.11v1.72h3.19v-8.48c0-3.93-2.94-6.12-6.73-6.12h.04ZM200.3,50.59c-1.08,0-2.58-.55-2.58-1.88,0-1.7,1.88-2.35,3.5-2.35,1.45,0,2.14.32,3.01.74-.25,2.05-2.02,3.5-3.93,3.5h0v-.02ZM219.03,38.94l-3.79,9.59h-.11l-3.93-9.59h-3.56l5.89,13.42-3.36,7.45h3.45l9.08-20.87s-3.68,0-3.68,0ZM189.29,53.1h3.31v-22.13h-3.31v22.13Z"/>
    <g>
      <path class="st5" d="M36.68,34.37l-18.85,20h0c.58,2.18,2.57,3.77,4.92,3.77.94,0,1.82-.25,2.58-.71l.05-.04,21.21-12.23-9.93-10.82h.02v.02Z"/>
      <path class="st3" d="M55.74,30.98h-.02l-9.15-5.33-10.32,9.19,10.35,10.35,9.12-5.26c1.59-.87,2.67-2.55,2.67-4.48s-1.06-3.61-2.66-4.46h0v-.02Z"/>
      <path class="st0" d="M17.82,16.43c-.11.42-.18.85-.18,1.31v35.35c0,.46.05.89.18,1.31l19.49-19.49s-19.49-18.48-19.49-18.48Z"/>
      <path class="st2" d="M36.82,35.4l9.75-9.75-21.19-12.28c-.76-.46-1.66-.73-2.64-.73-2.35,0-4.34,1.61-4.92,3.77h0l18.99,18.98h0v.02Z"/>
    </g>
  </g>
  <g>
    <path class="st4" d="M80.49,12.9c-.85-.46-1.84-.69-2.99-.69h-3.52v11.03h3.52c1.13,0,2.14-.23,2.99-.69s1.5-1.12,1.96-1.95c.46-.83.69-1.79.69-2.87s-.23-2.04-.69-2.87c-.46-.83-1.12-1.49-1.96-1.95v-.02ZM80.36,20.57c-.69.69-1.66,1.03-2.89,1.03h-1.77v-7.74h1.77c1.24,0,2.19.34,2.89,1.03s1.04,1.63,1.04,2.83-.35,2.16-1.04,2.83v.02Z"/>
    <rect class="st4" x="85.37" y="12.21" width="1.72" height="11.03"/>
    <path class="st4" d="M93.85,16.83l-.69-.23c-.65-.23-1.13-.46-1.45-.71-.3-.25-.46-.57-.46-.94,0-.41.18-.73.51-.99s.76-.39,1.27-.39.92.14,1.24.41.53.57.65.92l1.56-.65c-.19-.58-.58-1.12-1.15-1.58s-1.35-.71-2.32-.71c-.67,0-1.26.14-1.79.41s-.94.64-1.24,1.1c-.3.46-.44.96-.44,1.5,0,.8.25,1.43.76,1.91.5.48,1.12.85,1.86,1.12l.69.25c.83.3,1.42.58,1.75.89s.5.67.5,1.12c0,.5-.19.89-.57,1.17s-.85.42-1.38.42c-.58,0-1.08-.19-1.5-.58s-.71-.89-.87-1.49l-1.63.65c.28.96.78,1.72,1.5,2.25s1.56.8,2.46.8c.6,0,1.19-.12,1.77-.35.57-.23,1.04-.6,1.42-1.08.37-.5.55-1.1.55-1.81,0-.89-.27-1.59-.78-2.12s-1.26-.96-2.19-1.29l-.04.02Z"/>
    <path class="st4" d="M104.65,12.64c-.55-.28-1.15-.42-1.79-.42h-3.82v11.03h1.72v-4.28h2.09c.65,0,1.24-.14,1.79-.42.55-.28.99-.69,1.31-1.2s.48-1.1.48-1.73-.16-1.22-.48-1.73-.76-.92-1.31-1.2l.02-.02ZM104.51,16.43c-.14.27-.35.48-.64.65-.28.18-.6.25-.99.25h-2.12v-3.47h2.12c.37,0,.71.09.99.25s.5.37.64.65c.14.27.21.55.21.83s-.07.57-.21.83Z"/>
    <path class="st4" d="M116.51,12.74c-.87-.51-1.84-.76-2.9-.76s-2.04.25-2.9.76c-.87.51-1.56,1.2-2.05,2.09-.5.89-.74,1.84-.74,2.9s.25,2.04.74,2.9c.5.89,1.19,1.58,2.05,2.09s1.84.76,2.9.76,2.04-.25,2.9-.76,1.56-1.2,2.05-2.09c.5-.89.74-1.86.74-2.9s-.25-2.02-.76-2.9c-.5-.89-1.19-1.58-2.05-2.09h.02ZM117.04,19.86c-.35.62-.83,1.1-1.43,1.45s-1.27.53-2,.53-1.4-.18-2-.53-1.08-.83-1.43-1.45c-.35-.62-.53-1.33-.53-2.14s.18-1.5.53-2.14.83-1.1,1.43-1.45c.6-.35,1.27-.53,2-.53s1.4.18,2,.53,1.08.83,1.43,1.45.53,1.33.53,2.14-.18,1.5-.53,2.14Z"/>
    <polygon class="st4" points="128.51 18.11 128.61 20.23 128.51 20.23 123.59 12.21 121.53 12.21 121.53 23.24 123.25 23.24 123.25 16.92 123.16 14.8 123.25 14.8 128.42 23.24 130.22 23.24 130.22 12.21 128.51 12.21 128.51 18.11"/>
    <polygon class="st4" points="133.18 11.35 134.6 11.35 135.84 9.31 133.91 9.31 133.18 11.35"/>
    <rect class="st4" x="133.02" y="12.21" width="1.72" height="11.03"/>
    <polygon class="st4" points="141.61 19.51 141.2 20.75 141.11 20.75 140.72 19.51 138.26 12.21 136.37 12.21 140.26 23.24 142.07 23.24 146.07 12.21 144.19 12.21 141.61 19.51"/>
    <polygon class="st4" points="147.71 23.24 154.42 23.24 154.42 21.59 149.45 21.59 149.45 18.55 153.93 18.55 153.93 16.9 149.45 16.9 149.45 13.86 154.42 13.86 154.42 12.21 147.71 12.21 147.71 23.24"/>
    <polygon class="st4" points="158.51 12.21 156.78 12.21 156.78 23.24 163.24 23.24 163.24 21.59 158.51 21.59 158.51 12.21"/>
    <polygon class="st4" points="175.49 18.11 175.59 20.23 175.49 20.23 170.56 12.21 168.51 12.21 168.51 23.24 170.23 23.24 170.23 16.92 170.14 14.8 170.23 14.8 175.4 23.24 177.2 23.24 177.2 12.21 175.49 12.21 175.49 18.11"/>
    <path class="st4" d="M190.11,14.83c-.5-.89-1.19-1.58-2.05-2.09-.87-.51-1.84-.76-2.9-.76s-2.04.25-2.9.76-1.56,1.2-2.05,2.09c-.5.89-.74,1.84-.74,2.9s.25,2.04.74,2.9c.5.89,1.19,1.58,2.05,2.09.87.51,1.84.76,2.9.76s2.04-.25,2.9-.76,1.56-1.2,2.05-2.09c.5-.89.74-1.86.74-2.9s-.25-2.02-.76-2.9h.02ZM188.58,19.86c-.35.62-.83,1.1-1.43,1.45s-1.27.53-2,.53-1.4-.18-2-.53-1.08-.83-1.43-1.45c-.35-.62-.53-1.33-.53-2.14s.18-1.5.53-2.14.83-1.1,1.43-1.45,1.27-.53,2-.53,1.4.18,2,.53,1.08.83,1.43,1.45.53,1.33.53,2.14-.18,1.5-.53,2.14Z"/>
  </g>
</svg>