<?xml version="1.0" encoding="UTF-8"?>
<svg id="artwork" xmlns="http://www.w3.org/2000/svg" version="1.1" viewBox="0 0 238.96 70.87">
  <!-- Generator: Adobe Illustrator 29.8.3, SVG Export Plug-In . SVG Version: 2.1.1 Build 3)  -->
  <defs>
    <style>
      .st0 {
        fill: #4285f4;
      }

      .st1 {
        fill: #a6a6a6;
      }

      .st2 {
        fill: #34a853;
      }

      .st3 {
        fill: #fbbc04;
      }

      .st4 {
        fill: #fff;
      }

      .st5 {
        fill: #ea4335;
      }
    </style>
  </defs>
  <g>
    <rect x="-.11" y="0" width="239.07" height="70.83" rx="8.85" ry="8.85"/>
    <path class="st1" d="M230.11,1.42c4.11,0,7.44,3.33,7.44,7.44v53.13c0,4.11-3.33,7.44-7.44,7.44H8.75c-4.11,0-7.44-3.33-7.44-7.44V8.85C1.31,4.75,4.64,1.42,8.75,1.42h221.36M230.11,0H8.75C3.88,0-.11,3.98-.11,8.85v53.13c0,4.87,3.98,8.85,8.85,8.85h221.36c4.87,0,8.85-3.98,8.85-8.85V8.85C238.96,3.98,234.98,0,230.11,0h0Z"/>
    <path class="st4" d="M120.56,38.52c-4.16,0-7.56,3.17-7.56,7.53s3.4,7.53,7.56,7.53,7.56-3.19,7.56-7.53-3.4-7.53-7.56-7.53ZM120.56,50.61c-2.28,0-4.25-1.88-4.25-4.57s1.97-4.57,4.25-4.57,4.25,1.86,4.25,4.57-1.97,4.57-4.25,4.57ZM104.06,38.52c-4.16,0-7.56,3.17-7.56,7.53s3.4,7.53,7.56,7.53,7.56-3.19,7.56-7.53-3.4-7.53-7.56-7.53ZM104.06,50.61c-2.28,0-4.25-1.88-4.25-4.57s1.97-4.57,4.25-4.57,4.25,1.86,4.25,4.57-1.97,4.57-4.25,4.57ZM84.43,40.84v3.19h7.65c-.23,1.81-.83,3.12-1.74,4.02-1.12,1.12-2.85,2.34-5.9,2.34-4.71,0-8.39-3.79-8.39-8.5s3.68-8.5,8.39-8.5c2.53,0,4.39.99,5.76,2.28l2.25-2.25c-1.91-1.82-4.44-3.22-8.02-3.22-6.45,0-11.86,5.24-11.86,11.71s5.42,11.71,11.86,11.71c3.49,0,6.11-1.13,8.16-3.28,2.11-2.11,2.76-5.08,2.76-7.47,0-.74-.05-1.43-.18-2h-10.75v-.02ZM164.67,43.32c-.62-1.68-2.53-4.8-6.45-4.8s-7.1,3.05-7.1,7.53c0,4.21,3.19,7.53,7.47,7.53,3.45,0,5.45-2.11,6.27-3.33l-2.57-1.72c-.85,1.26-2.02,2.09-3.7,2.09s-2.89-.78-3.65-2.28l10.08-4.16-.34-.85h-.02ZM154.4,45.83c-.09-2.9,2.25-4.39,3.93-4.39,1.31,0,2.43.66,2.8,1.59,0,0-6.73,2.8-6.73,2.8ZM146.22,53.13h3.31v-22.14h-3.31v22.14ZM140.8,40.2h-.11c-.74-.89-2.16-1.68-3.97-1.68-3.77,0-7.23,3.31-7.23,7.56s3.45,7.51,7.23,7.51c1.81,0,3.22-.8,3.97-1.72h.11v1.08c0,2.89-1.54,4.43-4.02,4.43-2.02,0-3.28-1.45-3.79-2.67l-2.89,1.2c.83,2,3.03,4.44,6.68,4.44,3.88,0,7.15-2.28,7.15-7.84v-13.53h-3.13s0,1.22,0,1.22ZM136.99,50.61c-2.28,0-4.2-1.91-4.2-4.53s1.91-4.59,4.2-4.59,4.02,1.95,4.02,4.59-1.77,4.53-4.02,4.53ZM180.19,30.99h-7.92v22.14h3.31v-8.39h4.62c3.67,0,7.26-2.66,7.26-6.87s-3.59-6.87-7.26-6.87h-.02ZM180.26,41.65h-4.69v-7.6h4.69c2.48,0,3.88,2.05,3.88,3.79s-1.4,3.79-3.88,3.79v.02ZM200.69,38.48c-2.39,0-4.87,1.06-5.9,3.38l2.94,1.22c.62-1.22,1.79-1.63,3.01-1.63,1.7,0,3.45,1.03,3.47,2.85v.23c-.6-.34-1.88-.85-3.45-.85-3.17,0-6.38,1.74-6.38,4.98,0,2.96,2.59,4.87,5.49,4.87,2.21,0,3.45-.99,4.21-2.16h.11v1.72h3.19v-8.48c0-3.93-2.94-6.13-6.73-6.13h.04ZM200.28,50.61c-1.08,0-2.59-.55-2.59-1.88,0-1.7,1.88-2.36,3.51-2.36,1.45,0,2.14.32,3.01.74-.25,2.05-2.02,3.51-3.93,3.51v-.02ZM219.02,38.96l-3.79,9.6h-.11l-3.93-9.6h-3.56l5.9,13.42-3.36,7.46h3.45l9.08-20.88h-3.68ZM189.27,53.13h3.31v-22.14h-3.31v22.14Z"/>
    <g>
      <path class="st5" d="M36.59,34.39l-18.86,20.01h0c.58,2.18,2.57,3.77,4.92,3.77.94,0,1.82-.25,2.59-.71l.05-.04,21.21-12.24-9.93-10.82.02.02Z"/>
      <path class="st3" d="M55.66,30.99h-.02l-9.16-5.33-10.32,9.19,10.36,10.36,9.12-5.26c1.59-.87,2.67-2.55,2.67-4.48s-1.06-3.61-2.66-4.46v-.02Z"/>
      <path class="st0" d="M17.73,16.43c-.11.43-.18.85-.18,1.31v35.36c0,.46.05.89.18,1.31l19.5-19.5s-19.5-18.49-19.5-18.49Z"/>
      <path class="st2" d="M36.73,35.42l9.76-9.76-21.2-12.29c-.76-.46-1.66-.73-2.64-.73-2.36,0-4.34,1.61-4.92,3.77h0l19,18.98v.02Z"/>
    </g>
  </g>
  <g>
    <path class="st4" d="M73,23.02v-10.63h1.36v9.31h4.6v1.31h-5.97Z"/>
    <path class="st4" d="M79.8,23.02l4-10.63h1.54l4,10.63h-1.51l-1.03-2.89h-4.46l-1.04,2.89s-1.51,0-1.51,0ZM82.81,18.86h3.52l-1.74-4.8h-.05s-1.74,4.8-1.74,4.8Z"/>
    <path class="st4" d="M90.88,23.02v-10.63h3.26c1.63,0,2.94.5,3.91,1.47.97.99,1.47,2.27,1.47,3.84s-.5,2.85-1.47,3.84-2.28,1.47-3.91,1.47h-3.26ZM92.24,21.71h1.88c1.22,0,2.2-.35,2.92-1.06s1.08-1.68,1.08-2.96-.35-2.23-1.08-2.94-1.68-1.06-2.92-1.06h-1.88v8.02Z"/>
    <path class="st4" d="M101.44,23.02v-10.63h3.26c1.63,0,2.94.5,3.91,1.47.97.99,1.47,2.27,1.47,3.84s-.5,2.85-1.47,3.84-2.28,1.47-3.91,1.47h-3.26ZM102.8,21.71h1.88c1.22,0,2.2-.35,2.92-1.06s1.08-1.68,1.08-2.96-.35-2.23-1.08-2.94-1.68-1.06-2.92-1.06h-1.88v8.02Z"/>
    <path class="st4" d="M110.66,23.02l4-10.63h1.54l4,10.63h-1.51l-1.03-2.89h-4.46l-1.04,2.89h-1.51ZM113.67,18.86h3.52l-1.74-4.8h-.05s-1.74,4.8-1.74,4.8Z"/>
    <path class="st4" d="M125.32,23.02v-10.63h1.66l5.17,8.27h.05l-.05-2.05v-6.22h1.36v10.63h-1.42l-5.4-8.66h-.05l.05,2.05v6.62h-1.36l-.02-.02Z"/>
    <path class="st4" d="M142.15,13.71h-4.83v3.36h4.36v1.28h-4.36v3.36h4.83v1.31h-6.2v-10.63h6.2v1.31Z"/>
    <path class="st4" d="M144.29,23.02v-10.63h3.24c1.63,0,2.94.5,3.91,1.47.97.99,1.47,2.27,1.47,3.84s-.5,2.85-1.47,3.84-2.28,1.47-3.91,1.47h-3.24ZM145.65,21.71h1.88c1.22,0,2.2-.35,2.92-1.06s1.08-1.68,1.08-2.96-.35-2.23-1.08-2.94-1.68-1.06-2.92-1.06h-1.88v8.02Z"/>
    <path class="st4" d="M159.75,23.02h-1.36v-10.63h3.61c.9,0,1.68.3,2.34.9s.99,1.35.99,2.27-.34,1.66-.99,2.27c-.66.6-1.43.9-2.34.9h-2.25v4.3-.02ZM159.75,17.41h2.28c.57,0,1.03-.19,1.38-.58s.51-.81.51-1.28-.18-.89-.51-1.28c-.35-.39-.81-.58-1.38-.58h-2.28v3.72Z"/>
    <path class="st4" d="M165.13,23.02l3.79-10.02c-.37-.3-.55-.71-.55-1.19,0-.44.14-.8.44-1.1s.66-.44,1.1-.44.8.16,1.1.46c.3.3.46.67.46,1.1,0,.48-.18.87-.55,1.19l3.79,10.02h-1.51l-1.03-2.89h-4.46l-1.04,2.89h-1.51l-.04-.02ZM168.14,18.86h3.52l-1.74-4.8h-.05s-1.74,4.8-1.74,4.8ZM169.91,12.4c.16,0,.3-.05.41-.18.12-.12.18-.27.18-.41s-.05-.3-.18-.41c-.12-.12-.25-.18-.41-.18s-.3.05-.41.18c-.12.12-.18.27-.18.41s.05.3.16.41.23.18.37.18h.05Z"/>
  </g>
</svg>