<?xml version="1.0" encoding="UTF-8"?>
<svg id="artwork" xmlns="http://www.w3.org/2000/svg" version="1.1" viewBox="0 0 238.96 70.87">
  <!-- Generator: Adobe Illustrator 29.8.3, SVG Export Plug-In . SVG Version: 2.1.1 Build 3)  -->
  <defs>
    <style>
      .st0 {
        fill: #4285f4;
      }

      .st1 {
        isolation: isolate;
      }

      .st2 {
        fill: #a6a6a6;
      }

      .st3 {
        fill: #34a853;
      }

      .st4 {
        fill: #fbbc04;
      }

      .st5 {
        fill: #fff;
      }

      .st6 {
        fill: #ea4335;
      }
    </style>
  </defs>
  <g>
    <rect x="0" y="0" width="238.96" height="70.8" rx="8.85" ry="8.85"/>
    <path class="st2" d="M230.11,1.42c4.11,0,7.43,3.33,7.43,7.43v53.1c0,4.11-3.33,7.43-7.43,7.43H8.85c-4.11,0-7.43-3.33-7.43-7.43V8.85c0-4.11,3.33-7.43,7.43-7.43h221.26M230.11,0H8.85C3.98,0,0,3.98,0,8.85v53.1C0,66.82,3.98,70.8,8.85,70.8h221.26c4.87,0,8.85-3.98,8.85-8.85V8.85C238.96,3.98,234.98,0,230.11,0h0Z"/>
    <path class="st5" d="M120.61,38.5c-4.16,0-7.56,3.17-7.56,7.52s3.4,7.52,7.56,7.52,7.56-3.19,7.56-7.52-3.4-7.52-7.56-7.52ZM120.61,50.59c-2.28,0-4.25-1.88-4.25-4.57s1.96-4.57,4.25-4.57,4.25,1.86,4.25,4.57-1.96,4.57-4.25,4.57ZM104.12,38.5c-4.16,0-7.56,3.17-7.56,7.52s3.4,7.52,7.56,7.52,7.56-3.19,7.56-7.52-3.4-7.52-7.56-7.52ZM104.12,50.59c-2.28,0-4.25-1.88-4.25-4.57s1.96-4.57,4.25-4.57,4.25,1.86,4.25,4.57-1.96,4.57-4.25,4.57ZM84.5,40.82v3.19h7.65c-.23,1.81-.83,3.12-1.73,4.02-1.12,1.12-2.85,2.34-5.89,2.34-4.71,0-8.39-3.79-8.39-8.5s3.68-8.5,8.39-8.5c2.53,0,4.39.99,5.75,2.28l2.25-2.25c-1.91-1.82-4.44-3.22-8.02-3.22-6.44,0-11.86,5.24-11.86,11.7s5.42,11.7,11.86,11.7c3.49,0,6.11-1.13,8.16-3.27,2.11-2.11,2.76-5.08,2.76-7.47,0-.74-.05-1.43-.18-2h-10.74v-.02ZM164.71,43.3c-.62-1.68-2.53-4.8-6.44-4.8s-7.1,3.04-7.1,7.52c0,4.21,3.19,7.52,7.47,7.52,3.45,0,5.45-2.11,6.27-3.33l-2.57-1.72c-.85,1.26-2.02,2.09-3.7,2.09s-2.89-.78-3.65-2.28l10.07-4.16-.34-.85h-.02ZM154.44,45.81c-.09-2.9,2.25-4.39,3.93-4.39,1.31,0,2.43.65,2.8,1.59l-6.73,2.8ZM146.26,53.1h3.31v-22.13h-3.31v22.13ZM140.85,40.18h-.11c-.74-.89-2.16-1.68-3.96-1.68-3.77,0-7.22,3.31-7.22,7.56s3.45,7.51,7.22,7.51c1.81,0,3.22-.8,3.96-1.72h.11v1.08c0,2.89-1.54,4.43-4.02,4.43-2.02,0-3.27-1.45-3.79-2.67l-2.89,1.2c.83,2,3.03,4.44,6.67,4.44,3.88,0,7.15-2.28,7.15-7.84v-13.52h-3.13s0,1.22,0,1.22ZM137.04,50.59c-2.28,0-4.2-1.91-4.2-4.53s1.91-4.58,4.2-4.58,4.02,1.95,4.02,4.58-1.77,4.53-4.02,4.53ZM180.21,30.98h-7.91v22.13h3.31v-8.39h4.62c3.66,0,7.26-2.66,7.26-6.87s-3.59-6.87-7.26-6.87h-.02ZM180.28,41.63h-4.69v-7.59h4.69c2.48,0,3.88,2.05,3.88,3.79s-1.4,3.79-3.88,3.79v.02ZM200.71,38.46c-2.39,0-4.87,1.06-5.89,3.38l2.94,1.22c.62-1.22,1.79-1.63,3.01-1.63,1.7,0,3.45,1.03,3.47,2.85v.23c-.6-.34-1.88-.85-3.45-.85-3.17,0-6.37,1.73-6.37,4.97,0,2.96,2.58,4.87,5.49,4.87,2.21,0,3.45-.99,4.21-2.16h.11v1.72h3.19v-8.48c0-3.93-2.94-6.12-6.73-6.12h.04ZM200.3,50.59c-1.08,0-2.58-.55-2.58-1.88,0-1.7,1.88-2.35,3.5-2.35,1.45,0,2.14.32,3.01.74-.25,2.05-2.02,3.5-3.93,3.5v-.02ZM219.03,38.94l-3.79,9.59h-.11l-3.93-9.59h-3.56l5.89,13.42-3.36,7.45h3.45l9.08-20.87h-3.68ZM189.29,53.1h3.31v-22.13h-3.31v22.13Z"/>
    <g>
      <path class="st6" d="M36.68,34.37l-18.85,20h0c.58,2.18,2.57,3.77,4.92,3.77.94,0,1.82-.25,2.58-.71l.05-.04,21.21-12.23-9.93-10.82.02.02Z"/>
      <path class="st4" d="M55.74,30.98h-.02l-9.15-5.33-10.32,9.19,10.35,10.35,9.12-5.26c1.59-.87,2.67-2.55,2.67-4.48s-1.06-3.61-2.66-4.46v-.02Z"/>
      <path class="st0" d="M17.82,16.43c-.11.42-.18.85-.18,1.31v35.35c0,.46.05.89.18,1.31l19.49-19.49s-19.49-18.48-19.49-18.48Z"/>
      <path class="st3" d="M36.82,35.4l9.75-9.75-21.19-12.28c-.76-.46-1.66-.73-2.64-.73-2.35,0-4.34,1.61-4.92,3.77h0l18.99,18.98v.02Z"/>
    </g>
  </g>
  <g class="st1">
    <path class="st5" d="M74.23,10.72c-.18-.19-.28-.41-.28-.66s.09-.48.28-.66c.19-.19.41-.28.66-.28s.47.09.65.27.27.4.27.67c0,.25-.09.47-.27.66s-.4.29-.65.29-.48-.1-.66-.29ZM74.01,12.22h1.73v11.03h-1.73v-11.03Z"/>
  </g>
  <g class="st1">
    <path class="st5" d="M78.53,12.22h2.05l4.93,8.03h.09l-.09-2.13v-5.9h1.71v11.03h-1.8l-5.18-8.44h-.09l.09,2.13v6.32h-1.71v-11.03Z"/>
  </g>
  <g class="st1">
    <path class="st5" d="M90.02,12.22h3.53c1.14,0,2.14.23,2.99.69s1.51,1.11,1.96,1.95c.46.84.69,1.8.69,2.87s-.23,2.04-.69,2.87c-.46.84-1.11,1.49-1.96,1.95s-1.85.69-2.99.69h-3.53v-11.03ZM93.52,21.6c1.23,0,2.2-.34,2.89-1.03.69-.68,1.04-1.63,1.04-2.84s-.35-2.15-1.04-2.84c-.69-.69-1.66-1.03-2.89-1.03h-1.77v7.73h1.77Z"/>
  </g>
  <g class="st1">
    <path class="st5" d="M101.62,10.72c-.18-.19-.28-.41-.28-.66s.09-.48.28-.66c.19-.19.41-.28.66-.28s.47.09.65.27.27.4.27.67c0,.25-.09.47-.27.66s-.4.29-.65.29-.48-.1-.66-.29ZM101.41,12.22h1.73v11.03h-1.73v-11.03Z"/>
  </g>
  <g class="st1">
    <path class="st5" d="M105.92,12.22h3.88c.66,0,1.26.15,1.8.43.54.29.97.69,1.29,1.2.31.51.47,1.09.47,1.74,0,.74-.24,1.4-.72,1.97-.48.57-1.08.96-1.79,1.16l-.02.08,3.02,4.36v.09h-2l-2.91-4.31h-1.29v4.31h-1.73v-11.03ZM109.76,17.34c.51,0,.95-.16,1.31-.49s.54-.75.54-1.26c0-.29-.07-.56-.22-.83-.14-.27-.35-.48-.62-.65-.27-.17-.59-.25-.96-.25h-2.17v3.5h2.11Z"/>
  </g>
  <g class="st1">
    <path class="st5" d="M115.84,10.72c-.18-.19-.28-.41-.28-.66s.09-.48.28-.66c.19-.19.41-.28.66-.28s.47.09.65.27.27.4.27.67c0,.25-.09.47-.27.66s-.4.29-.65.29-.48-.1-.66-.29ZM115.63,12.22h1.73v11.03h-1.73v-11.03Z"/>
  </g>
  <g class="st1">
    <path class="st5" d="M120.14,12.22h2.05l4.93,8.03h.09l-.09-2.13v-5.9h1.71v11.03h-1.8l-5.18-8.44h-.09l.09,2.13v6.32h-1.71v-11.03Z"/>
  </g>
</svg>