<?xml version="1.0" encoding="UTF-8"?>
<svg id="artwork" xmlns="http://www.w3.org/2000/svg" version="1.1" viewBox="0 0 238.96 70.87">
  <!-- Generator: Adobe Illustrator 29.8.3, SVG Export Plug-In . SVG Version: 2.1.1 Build 3)  -->
  <defs>
    <style>
      .st0 {
        fill: #4285f4;
      }

      .st1 {
        isolation: isolate;
      }

      .st2 {
        fill: #a6a6a6;
      }

      .st3 {
        fill: #34a853;
      }

      .st4 {
        fill: #fbbc04;
      }

      .st5 {
        fill: #fff;
      }

      .st6 {
        fill: #ea4335;
      }
    </style>
  </defs>
  <g>
    <rect y="0" width="238.96" height="70.8" rx="8.85" ry="8.85"/>
    <path class="st2" d="M230.11,1.42c4.11,0,7.43,3.33,7.43,7.43v53.1c0,4.11-3.33,7.43-7.43,7.43H8.85c-4.11,0-7.43-3.33-7.43-7.43V8.85c0-4.11,3.33-7.43,7.43-7.43h221.26M230.11,0H8.85C3.98,0,0,3.98,0,8.85v53.1c0,4.87,3.98,8.85,8.85,8.85h221.26c4.87,0,8.85-3.98,8.85-8.85V8.85C238.96,3.98,234.98,0,230.11,0h0Z"/>
    <path class="st5" d="M120.61,38.5c-4.16,0-7.56,3.17-7.56,7.52s3.4,7.52,7.56,7.52,7.56-3.19,7.56-7.52-3.4-7.52-7.56-7.52ZM120.61,50.59c-2.28,0-4.25-1.88-4.25-4.57s1.96-4.57,4.25-4.57,4.25,1.86,4.25,4.57-1.96,4.57-4.25,4.57ZM104.12,38.5c-4.16,0-7.56,3.17-7.56,7.52s3.4,7.52,7.56,7.52,7.56-3.19,7.56-7.52-3.4-7.52-7.56-7.52ZM104.12,50.59c-2.28,0-4.25-1.88-4.25-4.57s1.96-4.57,4.25-4.57,4.25,1.86,4.25,4.57-1.96,4.57-4.25,4.57ZM84.5,40.82v3.19h7.65c-.23,1.81-.83,3.12-1.73,4.02-1.12,1.12-2.85,2.34-5.89,2.34-4.71,0-8.39-3.79-8.39-8.5s3.68-8.5,8.39-8.5c2.53,0,4.39.99,5.75,2.28l2.25-2.25c-1.91-1.82-4.44-3.22-8.02-3.22-6.44,0-11.86,5.24-11.86,11.7s5.42,11.7,11.86,11.7c3.49,0,6.11-1.13,8.16-3.27,2.11-2.11,2.76-5.08,2.76-7.47,0-.74-.05-1.43-.18-2h-10.74v-.02ZM164.71,43.3c-.62-1.68-2.53-4.8-6.44-4.8s-7.1,3.04-7.1,7.52c0,4.21,3.19,7.52,7.47,7.52,3.45,0,5.45-2.11,6.27-3.33l-2.57-1.72c-.85,1.26-2.02,2.09-3.7,2.09s-2.89-.78-3.65-2.28l10.07-4.16-.34-.85h-.02ZM154.44,45.81c-.09-2.9,2.25-4.39,3.93-4.39,1.31,0,2.43.65,2.8,1.59l-6.73,2.8ZM146.26,53.1h3.31v-22.13h-3.31v22.13ZM140.85,40.18h-.11c-.74-.89-2.16-1.68-3.96-1.68-3.77,0-7.22,3.31-7.22,7.56s3.45,7.51,7.22,7.51c1.81,0,3.22-.8,3.96-1.72h.11v1.08c0,2.89-1.54,4.43-4.02,4.43-2.02,0-3.27-1.45-3.79-2.67l-2.89,1.2c.83,2,3.03,4.44,6.67,4.44,3.88,0,7.15-2.28,7.15-7.84v-13.52h-3.13s0,1.22,0,1.22ZM137.04,50.59c-2.28,0-4.2-1.91-4.2-4.53s1.91-4.58,4.2-4.58,4.02,1.95,4.02,4.58-1.77,4.53-4.02,4.53ZM180.21,30.98h-7.91v22.13h3.31v-8.39h4.62c3.66,0,7.26-2.66,7.26-6.87s-3.59-6.87-7.26-6.87h-.02ZM180.28,41.63h-4.69v-7.59h4.69c2.48,0,3.88,2.05,3.88,3.79s-1.4,3.79-3.88,3.79v.02ZM200.71,38.46c-2.39,0-4.87,1.06-5.89,3.38l2.94,1.22c.62-1.22,1.79-1.63,3.01-1.63,1.7,0,3.45,1.03,3.47,2.85v.23c-.6-.34-1.88-.85-3.45-.85-3.17,0-6.37,1.73-6.37,4.97,0,2.96,2.58,4.87,5.49,4.87,2.21,0,3.45-.99,4.21-2.16h.11v1.72h3.19v-8.48c0-3.93-2.94-6.12-6.73-6.12h.04ZM200.3,50.59c-1.08,0-2.58-.55-2.58-1.88,0-1.7,1.88-2.35,3.5-2.35,1.45,0,2.14.32,3.01.74-.25,2.05-2.02,3.5-3.93,3.5v-.02ZM219.03,38.94l-3.79,9.59h-.11l-3.93-9.59h-3.56l5.89,13.42-3.36,7.45h3.45l9.08-20.87h-3.68ZM189.29,53.1h3.31v-22.13h-3.31v22.13Z"/>
    <g>
      <path class="st6" d="M36.68,34.37l-18.85,20h0c.58,2.18,2.57,3.77,4.92,3.77.94,0,1.82-.25,2.58-.71l.05-.04,21.21-12.23-9.93-10.82.02.02Z"/>
      <path class="st4" d="M55.74,30.98h-.02l-9.15-5.33-10.32,9.19,10.35,10.35,9.12-5.26c1.59-.87,2.67-2.55,2.67-4.48s-1.06-3.61-2.66-4.46v-.02Z"/>
      <path class="st0" d="M17.82,16.43c-.11.42-.18.85-.18,1.31v35.35c0,.46.05.89.18,1.31l19.49-19.49s-19.49-18.48-19.49-18.48Z"/>
      <path class="st3" d="M36.82,35.4l9.75-9.75-21.19-12.28c-.76-.46-1.66-.73-2.64-.73-2.35,0-4.34,1.61-4.92,3.77h0l18.99,18.98v.02Z"/>
    </g>
  </g>
  <g class="st1">
    <path class="st5" d="M74.82,22.79c-.69-.47-1.17-1.17-1.42-2.1l1.57-.63c.14.57.41,1.01.79,1.34.38.33.83.49,1.34.49.54,0,1.01-.18,1.41-.53.4-.35.59-.79.59-1.3s-.21-.94-.62-1.29-.93-.52-1.53-.52h-.91v-1.51h.8c.55,0,1.01-.15,1.37-.44.36-.29.54-.7.54-1.21,0-.45-.17-.82-.5-1.11s-.75-.43-1.26-.43c-.46,0-.85.14-1.16.41-.31.27-.52.59-.65.96l-1.53-.63c.22-.61.61-1.14,1.17-1.61.57-.47,1.29-.7,2.17-.7.67,0,1.26.13,1.79.39.52.26.93.62,1.22,1.09.29.46.43.98.43,1.56s-.12,1.06-.37,1.43-.58.68-1,.93v.09c.52.24.95.58,1.26,1.03.32.45.48,1,.48,1.65s-.16,1.2-.49,1.71c-.32.51-.77.92-1.33,1.21-.56.29-1.2.44-1.89.44-.82,0-1.58-.24-2.27-.71Z"/>
  </g>
  <g class="st1">
    <path class="st5" d="M85.94,12.22h1.97l4.14,11.03h-1.91l-.99-2.82h-4.45l-1,2.82h-1.91l4.14-11.03ZM88.58,18.83l-1.17-3.28-.43-1.28h-.09l-.43,1.28-1.17,3.28h3.3Z"/>
  </g>
  <g class="st1">
    <path class="st5" d="M93.76,12.22h4.14c.59,0,1.13.13,1.63.39.5.26.9.61,1.19,1.06.3.45.45.95.45,1.49s-.14,1.02-.41,1.42c-.27.4-.63.7-1.07.91v.09c.55.19,1,.52,1.35.97s.52.98.52,1.59-.16,1.15-.47,1.62c-.31.47-.73.84-1.26,1.1-.53.26-1.11.39-1.73.39h-4.33v-11.03ZM97.82,16.84c.49,0,.89-.15,1.19-.46.3-.31.45-.66.45-1.06s-.15-.75-.44-1.05c-.29-.3-.68-.45-1.15-.45h-2.4v3.04h2.34ZM98.09,21.65c.52,0,.94-.16,1.26-.49.31-.33.47-.71.47-1.14s-.16-.82-.49-1.15c-.32-.32-.76-.48-1.3-.48h-2.54v3.27h2.6Z"/>
  </g>
  <g class="st1">
    <path class="st5" d="M106.61,12.22h1.97l4.14,11.03h-1.91l-.99-2.82h-4.45l-1,2.82h-1.91l4.14-11.03ZM109.24,18.83l-1.17-3.28-.43-1.28h-.09l-.43,1.28-1.17,3.28h3.3Z"/>
  </g>
  <g class="st1">
    <path class="st5" d="M114.42,12.22h1.73v4.58h5.12v-4.58h1.71v11.03h-1.71v-4.82h-5.12v4.82h-1.73v-11.03Z"/>
  </g>
  <g class="st1">
    <path class="st5" d="M127.79,13.87h-3.08v-1.65h7.89v1.65h-3.08v9.38h-1.73v-9.38Z"/>
  </g>
  <g class="st1">
    <path class="st5" d="M136.48,12.22h1.97l4.14,11.03h-1.91l-.99-2.82h-4.45l-1,2.82h-1.91l4.14-11.03ZM139.12,18.83l-1.17-3.28-.43-1.28h-.09l-.43,1.28-1.17,3.28h3.3Z"/>
  </g>
  <g class="st1">
    <path class="st5" d="M143.67,23.16l4.41-5.32-4.19-5.53v-.09h2.1l3.85,5.21h.09v-5.21h1.73v5.21h.09l3.87-5.21h2.09v.09l-4.21,5.53,4.41,5.32v.09h-2.22l-3.94-4.95h-.09v4.95h-1.73v-4.95h-.09l-3.94,4.95h-2.22v-.09Z"/>
  </g>
  <g class="st1">
    <path class="st5" d="M159.45,12.22h1.71v6.03l-.09,2.13h.09l4.88-8.15h1.97v11.03h-1.71v-6.19l.09-2.13h-.09l-4.98,8.32h-1.88v-11.03Z"/>
    <path class="st5" d="M172.78,13.87h-3.08v-1.65h7.89v1.65h-3.08v9.38h-1.73v-9.38Z"/>
  </g>
  <g class="st1">
    <path class="st5" d="M179.4,12.22h1.71v6.03l-.09,2.13h.09l4.88-8.15h1.97v11.03h-1.71v-6.19l.09-2.13h-.09l-4.98,8.32h-1.88v-11.03Z"/>
    <path class="st5" d="M194.9,22.79c-.69-.47-1.17-1.17-1.42-2.1l1.57-.63c.14.57.41,1.01.79,1.34.38.33.83.49,1.34.49.54,0,1.01-.18,1.41-.53.39-.35.59-.79.59-1.3s-.21-.94-.62-1.29c-.42-.35-.93-.52-1.53-.52h-.91v-1.51h.8c.56,0,1.01-.15,1.37-.44.36-.29.54-.7.54-1.21,0-.45-.17-.82-.5-1.11s-.75-.43-1.26-.43c-.46,0-.85.14-1.16.41-.31.27-.52.59-.65.96l-1.53-.63c.22-.61.61-1.14,1.17-1.61s1.29-.7,2.17-.7c.67,0,1.26.13,1.79.39.52.26.93.62,1.22,1.09s.43.98.43,1.56-.12,1.06-.37,1.43c-.25.37-.58.68-1,.93v.09c.52.24.94.58,1.26,1.03.32.45.48,1,.48,1.65s-.16,1.2-.49,1.71-.77.92-1.33,1.21c-.56.29-1.2.44-1.89.44-.82,0-1.58-.24-2.27-.71Z"/>
  </g>
</svg>