<?xml version="1.0" encoding="UTF-8"?>
<svg id="artwork" xmlns="http://www.w3.org/2000/svg" version="1.1" viewBox="0 0 238.96 70.87">
  <!-- Generator: Adobe Illustrator 29.8.3, SVG Export Plug-In . SVG Version: 2.1.1 Build 3)  -->
  <defs>
    <style>
      .st0 {
        fill: #4285f4;
      }

      .st1 {
        isolation: isolate;
      }

      .st2 {
        fill: #a6a6a6;
      }

      .st3 {
        fill: #34a853;
      }

      .st4 {
        fill: #fbbc04;
      }

      .st5 {
        fill: #fff;
      }

      .st6 {
        fill: #ea4335;
      }
    </style>
  </defs>
  <g>
    <rect x="0" y=".03" width="238.96" height="70.8" rx="8.85" ry="8.85"/>
    <path class="st2" d="M230.11,1.45c4.11,0,7.43,3.33,7.43,7.43v53.1c0,4.11-3.33,7.43-7.43,7.43H8.85c-4.11,0-7.43-3.33-7.43-7.43V8.88C1.42,4.78,4.74,1.45,8.85,1.45h221.26M230.11.03H8.85C3.98.03,0,4.01,0,8.88v53.1C0,66.85,3.98,70.83,8.85,70.83h221.26c4.87,0,8.85-3.98,8.85-8.85V8.88c0-4.87-3.98-8.85-8.85-8.85h0Z"/>
    <path class="st5" d="M120.61,38.53c-4.16,0-7.56,3.17-7.56,7.52s3.4,7.52,7.56,7.52,7.56-3.19,7.56-7.52-3.4-7.52-7.56-7.52ZM120.61,50.62c-2.28,0-4.25-1.88-4.25-4.57s1.96-4.57,4.25-4.57,4.25,1.86,4.25,4.57-1.96,4.57-4.25,4.57ZM104.12,38.53c-4.16,0-7.56,3.17-7.56,7.52s3.4,7.52,7.56,7.52,7.56-3.19,7.56-7.52-3.4-7.52-7.56-7.52ZM104.12,50.62c-2.28,0-4.25-1.88-4.25-4.57s1.96-4.57,4.25-4.57,4.25,1.86,4.25,4.57-1.96,4.57-4.25,4.57ZM84.5,40.85v3.19h7.65c-.23,1.81-.83,3.12-1.73,4.02-1.12,1.12-2.85,2.34-5.89,2.34-4.71,0-8.39-3.79-8.39-8.5s3.68-8.5,8.39-8.5c2.53,0,4.39.99,5.75,2.28l2.25-2.25c-1.91-1.82-4.44-3.22-8.02-3.22-6.44,0-11.86,5.24-11.86,11.7s5.42,11.7,11.86,11.7c3.49,0,6.11-1.13,8.16-3.27,2.11-2.11,2.76-5.08,2.76-7.47,0-.74-.05-1.43-.18-2h-10.74v-.02ZM164.71,43.33c-.62-1.68-2.53-4.8-6.44-4.8s-7.1,3.04-7.1,7.52c0,4.21,3.19,7.52,7.47,7.52,3.45,0,5.45-2.11,6.27-3.33l-2.57-1.72c-.85,1.26-2.02,2.09-3.7,2.09s-2.89-.78-3.65-2.28l10.07-4.16-.34-.85s-.02,0-.02,0ZM154.44,45.84c-.09-2.9,2.25-4.39,3.93-4.39,1.31,0,2.43.65,2.8,1.59l-6.73,2.8ZM146.26,53.13h3.31v-22.13h-3.31v22.13ZM140.85,40.21h-.11c-.74-.89-2.16-1.68-3.96-1.68-3.77,0-7.22,3.31-7.22,7.56s3.45,7.51,7.22,7.51c1.81,0,3.22-.8,3.96-1.72h.11v1.08c0,2.89-1.54,4.43-4.02,4.43-2.02,0-3.27-1.45-3.79-2.67l-2.89,1.2c.83,2,3.03,4.44,6.67,4.44,3.88,0,7.15-2.28,7.15-7.84v-13.52h-3.13s0,1.22,0,1.22ZM137.04,50.62c-2.28,0-4.2-1.91-4.2-4.53s1.91-4.58,4.2-4.58,4.02,1.95,4.02,4.58-1.77,4.53-4.02,4.53ZM180.21,31.01h-7.91v22.13h3.31v-8.39h4.62c3.66,0,7.26-2.66,7.26-6.87s-3.59-6.87-7.26-6.87h-.02ZM180.28,41.66h-4.69v-7.59h4.69c2.48,0,3.88,2.05,3.88,3.79s-1.4,3.79-3.88,3.79h0v.02ZM200.71,38.5c-2.39,0-4.87,1.06-5.89,3.38l2.94,1.22c.62-1.22,1.79-1.63,3.01-1.63,1.7,0,3.45,1.03,3.47,2.85v.23c-.6-.34-1.88-.85-3.45-.85-3.17,0-6.37,1.73-6.37,4.97,0,2.96,2.58,4.87,5.49,4.87,2.21,0,3.45-.99,4.21-2.16h.11v1.72h3.19v-8.48c0-3.93-2.94-6.12-6.73-6.12h.04ZM200.3,50.62c-1.08,0-2.58-.55-2.58-1.88,0-1.7,1.88-2.35,3.5-2.35,1.45,0,2.14.32,3.01.74-.25,2.05-2.02,3.5-3.93,3.5h0v-.02ZM219.03,38.97l-3.79,9.59h-.11l-3.93-9.59h-3.56l5.89,13.42-3.36,7.45h3.45l9.08-20.87s-3.68,0-3.68,0ZM189.29,53.13h3.31v-22.13h-3.31v22.13Z"/>
    <g>
      <path class="st6" d="M36.68,34.41l-18.85,20h0c.58,2.18,2.57,3.77,4.92,3.77.94,0,1.82-.25,2.58-.71l.05-.04,21.21-12.23-9.93-10.82h.02v.02Z"/>
      <path class="st4" d="M55.74,31.01h-.02l-9.15-5.33-10.32,9.19,10.35,10.35,9.12-5.26c1.59-.87,2.67-2.55,2.67-4.48s-1.06-3.61-2.66-4.46h0v-.02Z"/>
      <path class="st0" d="M17.82,16.46c-.11.42-.18.85-.18,1.31v35.35c0,.46.05.89.18,1.31l19.49-19.49s-19.49-18.48-19.49-18.48Z"/>
      <path class="st3" d="M36.82,35.43l9.75-9.75-21.19-12.28c-.76-.46-1.66-.73-2.64-.73-2.35,0-4.34,1.61-4.92,3.77h0l18.99,18.98h0v.02Z"/>
    </g>
  </g>
  <g class="st1">
    <path class="st5" d="M73.62,17.18h13.67v.58h-13.67v-.58ZM75.03,23.75s-.04-.12-.05-.19-.05-.16-.07-.23c-.02-.07-.05-.14-.09-.19.14-.02.3-.12.5-.32.18-.19.39-.42.62-.71.12-.14.32-.37.57-.69s.53-.69.85-1.12c.32-.44.64-.9.96-1.42s.62-1.03.89-1.54l.62.19c-.44.74-.9,1.47-1.36,2.16-.48.71-.96,1.36-1.43,1.98s-.97,1.19-1.47,1.66v.04c-.09.04-.18.07-.25.11s-.12.07-.18.11-.07.09-.07.14l-.02.02ZM74.82,13.11h11.29v.6h-11.29v-.6ZM75.03,23.75v-.46l.53-.3,9.54-.74s.04.18.07.28c.02.11.04.19.05.27-1.5.12-2.78.23-3.86.32s-1.98.16-2.71.23c-.73.05-1.31.11-1.75.16-.44.04-.8.07-1.04.11-.25.02-.42.05-.55.09s-.21.05-.28.09v-.04ZM80.11,10.44h.62v6.94h-.62v-6.94ZM82.2,19.22l.5-.27c.48.5.96,1.04,1.45,1.63.48.58.92,1.17,1.33,1.72.41.57.73,1.08.96,1.52l-.53.32c-.23-.46-.55-.97-.96-1.56s-.83-1.17-1.31-1.75-.94-1.13-1.42-1.65l-.02.04Z"/>
  </g>
  <g class="st1">
    <path class="st5" d="M88.93,12.26h13.36v.57h-13.36v-.57ZM89.92,15.32h11.2v.57h-10.6v8.48h-.58v-9.05h-.02ZM93.97,16.37l.53.23c-.27.3-.55.62-.85.94-.32.32-.64.62-.97.92s-.65.55-.96.76c-.02-.04-.05-.07-.11-.12-.05-.05-.11-.11-.16-.18s-.11-.11-.14-.14c.48-.32.94-.69,1.42-1.13.48-.42.89-.87,1.24-1.29v.02ZM92.27,13.22l.5-.19c.19.28.41.6.6.92.19.32.37.6.48.83l-.51.28c-.11-.23-.27-.53-.48-.89-.19-.35-.39-.67-.58-.96ZM92.89,19.04h.55v4.11h-.55v-4.11ZM93.16,19.04h5.13v3.31h-5.13v-.51h4.57v-2.25h-4.57v-.55ZM94.89,10.58l.53-.16c.16.3.32.65.48,1.03s.28.69.35.96l-.57.19c-.07-.27-.19-.58-.35-.97-.16-.39-.32-.74-.46-1.06l.02.02ZM96.73,16.74l.37-.41c.35.23.73.5,1.12.78s.76.57,1.12.83c.35.27.64.51.87.71l-.35.5c-.23-.21-.53-.46-.89-.74s-.73-.57-1.12-.85-.76-.55-1.13-.8l.02-.02ZM98.42,13.08l.65.19c-.27.41-.55.85-.85,1.29-.32.44-.6.83-.85,1.13l-.51-.18c.18-.21.35-.46.57-.76.19-.28.39-.58.57-.89s.32-.57.44-.81l-.02.02ZM100.75,15.32h.57v8.11c0,.21-.04.37-.11.5s-.19.19-.39.27c-.18.05-.48.07-.87.09h-1.63c0-.07-.04-.16-.07-.25-.04-.11-.09-.19-.14-.27h2.28c.14,0,.23-.04.28-.07.05-.04.07-.12.07-.25v-8.12Z"/>
  </g>
  <g class="st1">
    <path class="st5" d="M105.25,12.46h.62v4.11c0,.57-.02,1.2-.05,1.86-.04.67-.11,1.35-.21,2.05-.11.71-.27,1.38-.48,2.05s-.5,1.29-.85,1.84c-.04-.04-.07-.09-.14-.12-.07-.04-.12-.09-.19-.12-.07-.04-.12-.07-.18-.09.34-.55.62-1.15.81-1.79.21-.64.35-1.29.44-1.95s.16-1.31.18-1.95c.04-.64.05-1.24.05-1.79,0,0,0-4.11,0-4.11ZM105.46,12.46h12.13v.58h-12.13v-.58ZM107.64,18.95h8.58v5.17h-.58v-4.6h-7.4v4.66h-.6v-5.22ZM107.97,22.99h8.07v.57h-8.07s0-.57,0-.57ZM110.49,10.72l.55-.19c.27.34.51.69.76,1.06.23.39.41.73.5,1.01l-.58.25c-.09-.3-.25-.65-.48-1.04-.23-.41-.48-.76-.74-1.08ZM111.18,13.63h.6v5.58h-.6v-5.58ZM111.46,15.77h5.54v.57h-5.54s0-.57,0-.57Z"/>
  </g>
  <g class="st1">
    <path class="st5" d="M119.57,11.61h13.63v.6h-13.63v-.6ZM125.8,11.91h.6v12.48h-.6v-12.48ZM126.17,15.5l.35-.42c.5.23,1.03.5,1.54.78s1.04.58,1.58.89.99.58,1.43.87.81.53,1.13.76l-.37.53c-.32-.23-.69-.5-1.13-.78s-.92-.58-1.43-.89-1.04-.6-1.58-.9-1.04-.57-1.54-.81l.02-.02Z"/>
  </g>
  <g class="st1">
    <path class="st5" d="M134.92,14.05h13.65v.55h-13.65v-.55ZM135.11,22.07c.64-.05,1.38-.12,2.25-.21s1.79-.18,2.78-.28,1.98-.21,2.99-.32v.55c-.97.11-1.93.21-2.9.32s-1.88.21-2.74.3c-.87.09-1.63.18-2.3.27,0,0-.07-.62-.07-.62ZM135.18,16.44h7.93v.55h-7.93v-.55ZM135.73,11.86h6.69v.53h-6.69v-.53ZM136.07,19.87s-.02-.11-.05-.18c-.02-.07-.05-.14-.07-.23-.02-.07-.05-.14-.09-.19.11-.02.21-.11.32-.25s.21-.34.34-.55c.09-.14.21-.41.41-.8s.39-.83.6-1.35.41-1.03.55-1.56l.62.18c-.19.57-.41,1.12-.65,1.66-.23.55-.48,1.06-.73,1.56-.25.5-.51.94-.78,1.33h0c-.09.05-.18.11-.23.14-.07.04-.12.09-.18.12-.05.04-.07.07-.07.11h.02ZM136.07,19.87v-.53l.5-.23h6.16v.57h-5.45c-.34,0-.6.02-.8.05-.19.04-.34.09-.41.12v.02ZM138.93,10.42h.6v3.84h-.6v-3.84ZM139.43,17.59h.58v6.73h-.58v-6.73ZM147.15,15.5l.53.18c-.34,1.13-.74,2.25-1.26,3.33-.51,1.1-1.1,2.11-1.77,3.03s-1.43,1.7-2.28,2.34c-.05-.07-.14-.12-.23-.19-.09-.07-.18-.14-.25-.19.83-.6,1.58-1.36,2.25-2.27.67-.9,1.26-1.89,1.77-2.96.5-1.06.92-2.14,1.24-3.24v-.02ZM143.57,10.47h.62c0,1.59.04,3.06.12,4.43.09,1.36.23,2.58.41,3.66s.41,2,.67,2.76c.27.76.57,1.35.92,1.73.35.41.73.6,1.13.6.23,0,.39-.21.5-.6.11-.41.18-1.1.23-2.07.05.05.14.12.25.18.11.05.19.09.28.12-.04.74-.11,1.35-.19,1.77-.09.44-.21.74-.39.94s-.41.28-.73.28c-.44,0-.85-.16-1.22-.48-.35-.32-.67-.76-.96-1.36-.28-.58-.51-1.29-.73-2.12-.21-.81-.39-1.75-.51-2.78-.14-1.03-.23-2.14-.3-3.33s-.11-2.44-.12-3.75l.02.02ZM145.32,11.22l.41-.3c.25.16.5.35.76.57.27.21.51.44.73.65.23.21.39.42.51.6l-.41.34c-.19-.27-.48-.58-.87-.94s-.76-.67-1.13-.92Z"/>
  </g>
</svg>